<?xml version="1.0" encoding="UTF-8"?><svg xmlns="http://www.w3.org/2000/svg" viewBox="0 0 1193.48 1029.41"><defs><style>.cls-1{fill:none;stroke:#e0afe2;stroke-miterlimit:10;stroke-width:24px;}.cls-2{fill:#fff8d5;stroke-width:0px;}</style></defs><g id="iteration2_rect"><polygon class="cls-2" points="737.55 813.31 699.91 832.41 680.18 793.54 643.43 798.86 623.7 759.99 587.63 778.3 564.31 732.36 526.67 751.46 500.67 700.22 464.14 709.87 445.31 672.77 415.51 687.89 395.78 649.02 370.69 661.76 349.17 619.35 317.8 635.27 298.97 598.17 335.04 579.86 319.56 545.49 352.5 528.78 335.46 495.21 368.39 478.49 352.25 446.68 379.69 432.75 364.4 402.63 398.12 385.51 383.81 357.33 413.61 342.21 398.36 312.17 429.73 296.25 416.5 274.08 454.14 254.97 434.41 216.1 472.05 196.99 490.88 234.1 519.11 219.77 537.05 255.11 571.55 237.6 595.97 285.7 630.22 267.7 651.79 310.19 683.15 294.27 703.78 334.91 735.15 318.99 757.57 363.16 784.68 342.74 805.3 383.38 835.77 365.69 856.4 406.33 889.78 382.72 912.2 426.89 879.72 452.27 900.79 486.01 864.95 508.65 888.71 547.7 847.26 570.96 873.72 615.3 830.03 641.92 839.23 679.47 796.21 687.98 821.32 721.9 764.64 746.22 781.46 791.02 736.08 769.61 737.55 813.31"/></g><g id="Layer_4"><circle class="cls-1" cx="575.98" cy="503.57" r="106.75"/><line class="cls-1" x1="667.64" y1="566" x2="751.4" y2="603.51"/><line class="cls-1" x1="732.16" y1="545.71" x2="690.34" y2="616.09"/></g></svg>