<?xml version="1.0" encoding="UTF-8"?><svg xmlns="http://www.w3.org/2000/svg" viewBox="0 0 1193.48 1029.41"><defs><style>.cls-1{fill:none;stroke-width:26px;}.cls-1,.cls-2{stroke:#a13863;stroke-miterlimit:10;}.cls-3{fill:#df91c3;stroke-width:0px;}.cls-2{fill:#a13863;}</style></defs><g id="Layer_4"><path class="cls-3" d="M1003.16,620.32l4.59-21.11-22.03-10.1v-25.36h-24.78l7.34-27.87-21.11-5.51,6.42-22.94-31.2-5.56,6.42-26.56-26.62-10.1v-23.86l-21.11,7.34,4.59-21.11-18.36-9.18v-21.11l-22.03-8.26v-22.03l-22.03-6.42v-26.62h-18.36v-24.78l-22.03-5.51v-22.94l-10.86-6.98c-.91.04-19.07-20.31-27.75-29.82-4.84-5.31-10.06-10.26-15.1-15.38-4.78-4.85-9.3-10.2-14.73-14.34-.77-.59-1.31-1.29-1.65-2.05l-.58-.25-15.6-12.85-20.19,12.85-158.78,637.85,20.19,26.62,17.44-23.86,17.44,20.19,14.68-22.03,17.44,17.44,15.6-31.2,22.03,11.93,11.01-28.45,22.94,11.93v-33.04l24.78,11.93,3.67-31.2,22.03,15.6,11.93-25.7,24.78,5.51,2.75-24.78,18.36,8.26,21.11-25.7,17.44,10.1,9.18-22.03,27.53,7.34,10.1-24.78h22.03l7.34-13.77h20.19l11.93-22.94,21.11,4.59,11.93-21.11,22.03,6.42,9.18-21.11h19.27l-11.93-15.6Z"/><polyline class="cls-3" points="697.18 199.06 705.64 199.06 712.11 199.06 712.8 205.36 732.01 213 729.18 223.56 743.47 227.17 742.31 238.29 757.1 242.3 757.1 256.35 772.24 260.56 772.03 273.76"/><path class="cls-3" d="M228.6,432.88l-4.59,21.11,22.03,10.1v25.36h24.78l-7.34,27.87,21.11,5.51-6.42,22.94,31.2,5.56-6.42,26.56,26.62,10.1v23.86l21.11-7.34-4.59,21.11,18.36,9.18v21.11l22.03,8.26v22.03l22.03,6.42v26.62h18.36v24.78l22.03,5.51v22.94l10.86,6.98c.91-.04,19.07,20.31,27.75,29.82,4.84,5.31,10.06,10.26,15.1,15.38,4.78,4.85,9.3,10.2,14.73,14.34.77.59,1.31,1.29,1.65,2.05l.58.25,15.6,12.85,20.19-12.85,158.78-637.85-20.19-26.62-17.44,23.86-17.44-20.19-14.68,22.03-17.44-17.44-15.6,31.2-22.03-11.93-11.01,28.45-22.94-11.93v33.04l-24.78-11.93-3.67,31.2-22.03-15.6-11.93,25.7-24.78-5.51-2.75,24.78-18.36-8.26-21.11,25.7-17.44-10.1-9.18,22.03-27.53-7.34-10.1,24.78h-22.03l-7.34,13.77h-20.19l-11.93,22.94-21.11-4.59-11.93,21.11-22.03-6.42-9.18,21.11h-19.27l11.93,15.6Z"/><polyline class="cls-3" points="534.57 854.14 526.12 854.14 519.65 854.14 518.96 847.85 499.75 840.21 502.58 829.65 488.29 826.04 489.45 814.92 474.66 810.91 474.66 796.86 459.52 792.65 459.73 779.44"/></g><g id="Layer_5"><ellipse class="cls-1" cx="615.22" cy="469.92" rx="89.98" ry="84.53" transform="translate(-104.15 183.88) rotate(-15.69)"/><line class="cls-1" x1="635.65" y1="542.65" x2="665.32" y2="639.75"/><line class="cls-1" x1="702.24" y1="583.83" x2="604.49" y2="611.29"/><path class="cls-2" d="M636.75,475.56c-3.33,1.98-11.77,6.35-20.86,4.01-1.95-.5-7.46-1.92-8.21-5.39-.99-4.58,7.02-9.55,8.26-10.32,6-3.72,8.32-2.07,18.32-5.14,9.94-3.06,11.37-5.84,19.47-6.7,4.93-.53,7.93-.85,10.71.68,8.91,4.9,10.48,26.01,1.39,39-4.83,6.9-10.01,7.73-12.24,15.44-2.05,7.11,1.25,10.22-1.77,15.27-2.62,4.39-7.4,5.85-16.39,8.6-7.72,2.36-16.94,5.19-20.32,1.4-2.42-2.7.22-6.45-2.64-9.41-2.27-2.35-5.64-1.77-10.14-2.07,0,0-9.51-.63-18.54-5.87-7.07-4.1-15.63-13.64-13.34-20.26,3.32-9.59,30.37-15.87,45.62-10.05,1.87.71,8.2,3.38,14.36,1.2,1.29-.46,4.54-1.61,5.99-4.76,1.1-2.39.6-4.69.33-5.63Z"/><path class="cls-2" d="M569.73,445.75c-2.89-1.04-6.92-.59-9.1,1.63-1.85,1.88-1.84,4.48,1.42,18.68,3.13,13.65,4.08,15.4,6.2,16.42,4.28,2.04,11.09-.03,13.51-4.1,1.2-2.02.94-3.91-3.06-15.45-4.84-13.96-6.19-16.18-8.97-17.18Z"/><path class="cls-2" d="M588.28,425.25c-3-1.43-7.07-1.13-9.16,1.44-1.77,2.17-1.6,5.32,2.56,22.72,4,16.73,5.06,18.91,7.29,20.26,4.47,2.72,11.27.63,13.49-4.17,1.1-2.38.72-4.68-4.04-18.91-5.76-17.21-7.26-19.98-10.14-21.35Z"/><path class="cls-2" d="M613.83,416.19c-2.91-1.1-6.94-.69-9.11,1.6-1.84,1.93-1.8,4.63,1.62,19.4,3.29,14.19,4.25,16.03,6.4,17.1,4.32,2.16,11.12.09,13.51-4.11,1.18-2.09.9-4.04-3.24-16.06-5.01-14.54-6.38-16.86-9.18-17.92Z"/><path class="cls-2" d="M640.41,416.66c-2.81-.75-6.81-.2-9.06,1.77-1.91,1.67-2.01,3.88.6,15.77,2.51,11.43,3.37,12.88,5.43,13.64,4.14,1.54,10.96-.5,13.52-4.06,1.27-1.77,1.1-3.35-2.37-12.96-4.19-11.62-5.42-13.45-8.12-14.17Z"/></g></svg>