<?xml version="1.0" encoding="UTF-8"?><svg xmlns="http://www.w3.org/2000/svg" viewBox="0 0 1181.95 1017.88"><defs><style>.cls-1{fill:none;stroke:#e0afe2;stroke-miterlimit:10;stroke-width:26px;}.cls-2{fill:#f2efe9;stroke-width:0px;}</style></defs><g id="Layer_4"><path class="cls-2" d="M1026.59,560.58l4.59-21.11-22.03-10.1v-25.36h-24.78l7.34-27.87-21.11-5.51,6.42-22.94-31.2-5.56,6.42-26.56-26.62-10.1v-23.86l-21.11,7.34,4.59-21.11-18.36-9.18v-21.11l-22.03-8.26v-22.03l-22.03-6.42v-26.62h-18.36v-24.78l-22.03-5.51v-22.94l-10.86-6.98c-.91.04-19.07-20.31-27.75-29.82-4.84-5.31-10.06-10.26-15.1-15.38-4.78-4.85-9.3-10.2-14.73-14.34-.77-.59-1.31-1.29-1.65-2.05l-.58-.25-15.6-12.85-20.19,12.85-158.78,637.85,20.19,26.62,17.44-23.86,17.44,20.19,14.68-22.03,17.44,17.44,15.6-31.2,22.03,11.93,11.01-28.45,22.94,11.93v-33.04l24.78,11.93,3.67-31.2,22.03,15.6,11.93-25.7,24.78,5.51,2.75-24.78,18.36,8.26,21.11-25.7,17.44,10.1,9.18-22.03,27.53,7.34,10.1-24.78h22.03l7.34-13.77h20.19l11.93-22.94,21.11,4.59,11.93-21.11,22.03,6.42,9.18-21.11h19.27l-11.93-15.6Z"/><polyline class="cls-2" points="720.62 139.32 729.07 139.32 735.54 139.32 736.23 145.61 755.44 153.25 752.61 163.81 766.9 167.42 765.74 178.54 780.53 182.55 780.53 196.6 795.67 200.81 795.46 214.02"/><path class="cls-2" d="M252.03,373.14l-4.59,21.11,22.03,10.1v25.36h24.78l-7.34,27.87,21.11,5.51-6.42,22.94,31.2,5.56-6.42,26.56,26.62,10.1v23.86l21.11-7.34-4.59,21.11,18.36,9.18v21.11l22.03,8.26v22.03l22.03,6.42v26.62h18.36v24.78l22.03,5.51v22.94l10.86,6.98c.91-.04,19.07,20.31,27.75,29.82,4.84,5.31,10.06,10.26,15.1,15.38,4.78,4.85,9.3,10.2,14.73,14.34.77.59,1.31,1.29,1.65,2.05l.58.25,15.6,12.85,20.19-12.85,158.78-637.85-20.19-26.62-17.44,23.86-17.44-20.19-14.68,22.03-17.44-17.44-15.6,31.2-22.03-11.93-11.01,28.45-22.94-11.93v33.04l-24.78-11.93-3.67,31.2-22.03-15.6-11.93,25.7-24.78-5.51-2.75,24.78-18.36-8.26-21.11,25.7-17.44-10.1-9.18,22.03-27.53-7.34-10.1,24.78h-22.03l-7.34,13.77h-20.19l-11.93,22.94-21.11-4.59-11.93,21.11-22.03-6.42-9.18,21.11h-19.27l11.93,15.6Z"/><polyline class="cls-2" points="558 794.4 549.55 794.4 543.08 794.4 542.39 788.1 523.18 780.46 526.01 769.9 511.72 766.29 512.88 755.17 498.09 751.16 498.09 737.11 482.95 732.9 483.16 719.7"/></g><g id="Layer_5"><circle class="cls-1" cx="636.18" cy="430.41" r="106.75"/><line class="cls-1" x1="637.33" y1="534.85" x2="635.35" y2="623.46"/><line class="cls-1" x1="677.1" y1="587.2" x2="595.25" y2="585.62"/></g></svg>