<?xml version="1.0" encoding="UTF-8"?><svg xmlns="http://www.w3.org/2000/svg" viewBox="0 0 1181.95 1017.88"><defs><style>.cls-1{fill:none;stroke-width:26px;}.cls-1,.cls-2{stroke:#a13863;stroke-miterlimit:10;}.cls-3{fill:#e1e8e8;}.cls-3,.cls-4{stroke-width:0px;}.cls-4{fill:#df91c3;}.cls-2{fill:#a13863;}</style></defs><g id="Layer_4"><path class="cls-3" d="M1026.59,560.58l4.59-21.11-22.03-10.1v-25.36h-24.78l7.34-27.87-21.11-5.51,6.42-22.94-31.2-5.56,6.42-26.56-26.62-10.1v-23.86l-21.11,7.34,4.59-21.11-18.36-9.18v-21.11l-22.03-8.26v-22.03l-22.03-6.42v-26.62h-18.36v-24.78l-22.03-5.51v-22.94l-10.86-6.98c-.91.04-19.07-20.31-27.75-29.82-4.84-5.31-10.06-10.26-15.1-15.38-4.78-4.85-9.3-10.2-14.73-14.34-.77-.59-1.31-1.29-1.65-2.05l-.58-.25-15.6-12.85-20.19,12.85-158.78,637.85,20.19,26.62,17.44-23.86,17.44,20.19,14.68-22.03,17.44,17.44,15.6-31.2,22.03,11.93,11.01-28.45,22.94,11.93v-33.04l24.78,11.93,3.67-31.2,22.03,15.6,11.93-25.7,24.78,5.51,2.75-24.78,18.36,8.26,21.11-25.7,17.44,10.1,9.18-22.03,27.53,7.34,10.1-24.78h22.03l7.34-13.77h20.19l11.93-22.94,21.11,4.59,11.93-21.11,22.03,6.42,9.18-21.11h19.27l-11.93-15.6Z"/><polyline class="cls-3" points="720.62 139.32 729.07 139.32 735.54 139.32 736.23 145.61 755.44 153.25 752.61 163.81 766.9 167.42 765.74 178.54 780.53 182.55 780.53 196.6 795.67 200.81 795.46 214.02"/><path class="cls-3" d="M252.03,373.14l-4.59,21.11,22.03,10.1v25.36h24.78l-7.34,27.87,21.11,5.51-6.42,22.94,31.2,5.56-6.42,26.56,26.62,10.1v23.86l21.11-7.34-4.59,21.11,18.36,9.18v21.11l22.03,8.26v22.03l22.03,6.42v26.62h18.36v24.78l22.03,5.51v22.94l10.86,6.98c.91-.04,19.07,20.31,27.75,29.82,4.84,5.31,10.06,10.26,15.1,15.38,4.78,4.85,9.3,10.2,14.73,14.34.77.59,1.31,1.29,1.65,2.05l.58.25,15.6,12.85,20.19-12.85,158.78-637.85-20.19-26.62-17.44,23.86-17.44-20.19-14.68,22.03-17.44-17.44-15.6,31.2-22.03-11.93-11.01,28.45-22.94-11.93v33.04l-24.78-11.93-3.67,31.2-22.03-15.6-11.93,25.7-24.78-5.51-2.75,24.78-18.36-8.26-21.11,25.7-17.44-10.1-9.18,22.03-27.53-7.34-10.1,24.78h-22.03l-7.34,13.77h-20.19l-11.93,22.94-21.11-4.59-11.93,21.11-22.03-6.42-9.18,21.11h-19.27l11.93,15.6Z"/><polyline class="cls-3" points="558 794.4 549.55 794.4 543.08 794.4 542.39 788.1 523.18 780.46 526.01 769.9 511.72 766.29 512.88 755.17 498.09 751.16 498.09 737.11 482.95 732.9 483.16 719.7"/><path class="cls-4" d="M834.16,594.6l7.52-20.25-20.38-13.1,3.57-25.11-24.53-3.49,11.2-26.56-20.12-8.43,9.59-21.81-30.11-9.9,10.1-25.39-24.93-13.75,3.36-23.62-21.93,4.29,7.52-20.25-16.88-11.67,2.97-20.9-20.64-11.28,3.1-21.81-20.9-9.46,3.75-26.35-18.17-2.59,3.49-24.53-21.03-8.56,3.23-22.72-9.77-8.45c-.9-.09-16.02-22.8-23.27-33.44-4.05-5.94-8.51-11.58-12.78-17.36-4.05-5.48-7.77-11.41-12.56-16.28-.68-.69-1.11-1.47-1.34-2.26l-.54-.33-13.64-14.92-21.8,9.88-247.07,609.12,16.24,29.2,20.63-21.17,14.42,22.45,17.64-19.74,14.81,19.72,19.84-28.69,20.13,14.92,14.91-26.62,21.03,15.05,4.66-32.71,22.85,15.3,8.03-30.38,19.61,18.55,15.43-23.76,23.76,8.94,6.22-24.14,17.01,10.76,24.52-22.47,15.84,12.45,12.19-20.51,26.22,11.15,13.49-23.11,21.81,3.1,9.21-12.59,19.99,2.85,15.05-21.03,20.25,7.52,14.79-19.22,20.9,9.46,12.06-19.6,19.08,2.72-9.61-17.13Z"/><polyline class="cls-4" points="590.6 134.43 598.97 135.62 605.38 136.53 605.17 142.86 623.12 153.13 618.82 163.19 632.47 168.77 629.75 179.62 643.83 185.68 641.85 199.58 656.25 205.88 654.17 218.93"/><path class="cls-4" d="M93.75,299.88l-7.52,20.25,20.38,13.1-3.57,25.11,24.53,3.49-11.2,26.56,20.12,8.43-9.59,21.81,30.11,9.9-10.1,25.39,24.93,13.75-3.36,23.62,21.93-4.29-7.52,20.25,16.88,11.67-2.97,20.9,20.64,11.28-3.1,21.81,20.9,9.46-3.75,26.35,18.17,2.59-3.49,24.53,21.03,8.56-3.23,22.72,9.77,8.45c.9.09,16.02,22.8,23.27,33.44,4.05,5.94,8.51,11.58,12.78,17.36,4.05,5.48,7.77,11.41,12.56,16.28.68.69,1.11,1.47,1.34,2.26l.54.33,13.64,14.92,21.8-9.88,247.07-609.12-16.24-29.2-20.63,21.17-14.42-22.45-17.64,19.74-14.81-19.72-19.84,28.69-20.13-14.92-14.91,26.62-21.03-15.05-4.66,32.71-22.85-15.3-8.03,30.38-19.61-18.55-15.43,23.76-23.76-8.94-6.22,24.14-17.01-10.76-24.52,22.47-15.84-12.45-12.19,20.51-26.22-11.15-13.49,23.11-21.81-3.1-9.21,12.59-19.99-2.85-15.05,21.03-20.25-7.52-14.79,19.22-20.9-9.46-12.06,19.6-19.08-2.72,9.61,17.13Z"/><polyline class="cls-4" points="337.3 760.06 328.93 758.86 322.53 757.95 322.73 751.63 304.79 741.36 309.08 731.3 295.44 725.71 298.16 714.86 284.08 708.81 286.06 694.9 271.66 688.6 273.74 675.56"/></g><g id="Layer_5"><ellipse class="cls-1" cx="464.02" cy="397.14" rx="89.98" ry="84.53" transform="translate(-56.56 77.71) rotate(-9.03)"/><line class="cls-1" x1="475.87" y1="471.75" x2="494.07" y2="571.63"/><line class="cls-1" x1="537.23" y1="520.38" x2="436.96" y2="536.31"/><path class="cls-2" d="M484.75,405.24c-3.54,1.58-12.43,4.94-21.19,1.57-1.88-.72-7.18-2.77-7.53-6.3-.45-4.67,8.08-8.67,9.4-9.29,6.39-3,8.5-1.09,18.79-2.98,10.23-1.88,11.97-4.48,20.12-4.4,4.95.05,7.97.08,10.56,1.92,8.28,5.9,7.39,27.05-3.14,38.9-5.59,6.29-10.84,6.51-13.95,13.92-2.86,6.82.05,10.3-3.53,14.96-3.11,4.05-8.03,4.95-17.28,6.64-7.94,1.45-17.43,3.19-20.35-.97-2.09-2.97.97-6.38-1.53-9.66-1.98-2.59-5.4-2.42-9.84-3.24,0,0-9.37-1.73-17.73-7.98-6.55-4.89-13.94-15.36-10.9-21.67,4.41-9.14,32.01-12.24,46.48-4.68,1.78.93,7.76,4.31,14.12,2.86,1.34-.31,4.7-1.07,6.51-4.03,1.37-2.25,1.14-4.59.98-5.56Z"/><path class="cls-2" d="M421.64,367.86c-2.75-1.36-6.8-1.39-9.23.57-2.06,1.65-2.35,4.24-.76,18.72,1.53,13.92,2.26,15.77,4.26,17.02,4.02,2.52,11.02,1.26,13.89-2.51,1.43-1.87,1.39-3.77-1.25-15.7-3.19-14.43-4.27-16.79-6.91-18.1Z"/><path class="cls-2" d="M442.45,349.64c-2.82-1.77-6.89-1.94-9.26.37-2.01,1.95-2.21,5.1-.1,22.87,2.03,17.08,2.84,19.37,4.88,20.97,4.13,3.22,11.13,1.93,13.88-2.57,1.37-2.24,1.26-4.56-1.81-19.25-3.72-17.76-4.89-20.69-7.59-22.38Z"/><path class="cls-2" d="M468.87,343.61c-2.76-1.44-6.82-1.49-9.24.53-2.05,1.71-2.32,4.39-.64,19.46,1.62,14.48,2.37,16.41,4.37,17.72,4.04,2.64,11.04,1.38,13.89-2.52,1.42-1.94,1.36-3.91-1.35-16.33-3.29-15.02-4.38-17.48-7.03-18.86Z"/><path class="cls-2" d="M495.22,347.16c-2.71-1.07-6.74-.99-9.21.71-2.09,1.44-2.44,3.62-1.23,15.73,1.17,11.64,1.85,13.18,3.81,14.18,3.94,2.01,10.94.78,13.9-2.46,1.47-1.61,1.48-3.2-.85-13.15-2.81-12.03-3.82-13.98-6.42-15.02Z"/></g></svg>