<?xml version="1.0" encoding="UTF-8"?><svg id="Layer_4" xmlns="http://www.w3.org/2000/svg" viewBox="0 0 1181.95 1017.88"><defs><style>.cls-1{fill:#e1e8e8;}.cls-1,.cls-2{stroke-width:0px;}.cls-2{fill:#df91c3;}</style></defs><path class="cls-1" d="M1026.59,560.58l4.59-21.11-22.03-10.1v-25.36h-24.78l7.34-27.87-21.11-5.51,6.42-22.94-31.2-5.56,6.42-26.56-26.62-10.1v-23.86l-21.11,7.34,4.59-21.11-18.36-9.18v-21.11l-22.03-8.26v-22.03l-22.03-6.42v-26.62h-18.36v-24.78l-22.03-5.51v-22.94l-10.86-6.98c-.91.04-19.07-20.31-27.75-29.82-4.84-5.31-10.06-10.26-15.1-15.38-4.78-4.85-9.3-10.2-14.73-14.34-.77-.59-1.31-1.29-1.65-2.05l-.58-.25-15.6-12.85-20.19,12.85-123.46,495.98c.35,3.41.71,6.83,1.08,10.24,5.33,50.08,11.56,100.09,15.02,150.35l3.65,4.23,14.68-22.03,17.44,17.44,15.6-31.2,22.03,11.93,11.01-28.45,22.94,11.93v-33.04l24.78,11.93,3.67-31.2,22.03,15.6,11.93-25.7,24.78,5.51,2.75-24.78,18.36,8.26,21.11-25.7,17.44,10.1,9.18-22.03,27.53,7.34,10.1-24.78h22.03l7.34-13.77h20.19l11.93-22.94,21.11,4.59,11.93-21.11,22.03,6.42,9.18-21.11h19.27l-11.93-15.6Z"/><polyline class="cls-1" points="720.62 139.32 729.07 139.32 735.54 139.32 736.23 145.61 755.44 153.25 752.61 163.81 766.9 167.42 765.74 178.54 780.53 182.55 780.53 196.6 795.67 200.81 795.46 214.02"/><path class="cls-1" d="M565.45,288.08c.04,64.18.47,128.36,2.02,192.52.78,32.22,1.84,64.43,3.27,96.63,1.21,27.14,3.86,54.16,6.73,81.16,3.17,29.79,6.66,59.56,9.7,89.37l150.37-604.07-20.19-26.62-17.44,23.86-17.44-20.19-14.68,22.03-17.44-17.44-15.6,31.2-22.03-11.93-11.01,28.45-22.94-11.93v33.04l-13.13-6.32c-.1,33.41-.2,66.82-.18,100.23Z"/><path class="cls-2" d="M834.16,594.6l7.52-20.25-20.38-13.1,3.57-25.11-24.53-3.49,11.2-26.56-20.12-8.43,9.59-21.81-30.11-9.9,10.1-25.39-24.93-13.75,3.36-23.62-21.93,4.29,7.52-20.25-16.88-11.67,2.97-20.9-20.64-11.28,3.1-21.81-20.9-9.46,3.75-26.35-18.17-2.59,3.49-24.53-21.03-8.56,3.23-22.72-9.77-8.45c-.9-.09-16.02-22.8-23.27-33.44-4.05-5.94-8.51-11.58-12.78-17.36-4.05-5.48-7.77-11.41-12.56-16.28-.68-.69-1.11-1.47-1.34-2.26l-.54-.33-13.64-14.92-21.8,9.88-2.5,6.17c-.14,45.9-.31,91.79-.29,137.69.04,64.18.47,128.36,2.02,192.52.78,32.22,1.84,64.43,3.27,96.63,1.21,27.14,3.86,54.16,6.73,81.16,1.17,11,2.39,22,3.6,32.99l.29-1.13,17.01,10.76,24.52-22.47,15.84,12.45,12.19-20.51,26.22,11.15,13.49-23.11,21.81,3.1,9.21-12.59,19.99,2.85,15.05-21.03,20.25,7.52,14.79-19.22,20.9,9.46,12.06-19.6,19.08,2.72-9.61-17.13Z"/><polyline class="cls-2" points="590.6 134.43 598.97 135.62 605.38 136.53 605.17 142.86 623.12 153.13 618.82 163.19 632.47 168.77 629.75 179.62 643.83 185.68 641.85 199.58 656.25 205.88 654.17 218.93"/><path class="cls-2" d="M565.49,242.82l41.24-101.68-16.24-29.2-20.63,21.17-4.06-6.33c-.1,38.68-.24,77.36-.31,116.03Z"/></svg>