<?xml version="1.0" encoding="UTF-8"?><svg xmlns="http://www.w3.org/2000/svg" viewBox="0 0 1193.48 1029.41"><defs><style>.cls-1{fill:#6cc7ff;}.cls-1,.cls-2,.cls-3,.cls-4{stroke-width:0px;}.cls-5{fill:none;stroke:#000;stroke-miterlimit:10;stroke-width:10px;}.cls-2{fill:#99d6d0;}.cls-3{fill:#000;}.cls-4{fill:#fff;}</style></defs><g id="iteration2_rect"><polygon class="cls-2" points="657.88 217.48 700.09 217.48 700.09 256.17 735.26 266.72 735.26 305.42 775.71 305.42 775.71 351.14 817.92 351.14 817.92 402.15 854.86 409.18 854.86 446.11 888.27 446.11 888.27 484.8 916.41 484.8 916.41 527.01 951.59 527.01 951.59 563.95 911.13 563.95 909.38 597.36 872.44 597.36 872.44 630.78 835.51 630.78 835.51 662.44 804.73 662.44 804.73 692.42 766.92 692.42 766.92 720.47 733.5 720.47 733.5 750.37 698.33 750.37 700.09 773.24 657.88 773.24 657.88 811.93 615.67 811.93 615.67 774.99 584.01 774.99 584.01 739.82 545.32 739.82 545.32 691.94 506.63 692.42 506.63 650.12 471.45 650.12 471.45 609.67 436.28 609.67 436.28 565.71 402.86 570.98 402.86 530.53 367.69 532.29 367.69 491.84 327.24 497.12 327.24 453.15 367.69 446.11 364.17 410.94 406.38 407.42 402.86 366.97 450.35 365.21 446.83 319.49 497.84 315.97 506.63 282.55 548.84 293.1 541.8 256.17 603.36 259.69 608.63 217.48 639.41 252.65 657.88 217.48"/></g><g id="Layer_4"><path class="cls-4" d="M523.8,509.03c4.08-5.62,52.03-69.47,126.63-65.07,66.87,3.94,127.49,61.08,119.59,91.45-8.62,33.15-102.4,48-174.11,21.1-33.48-12.56-57.2-32.36-72.11-47.49Z"/><ellipse class="cls-1" cx="655.61" cy="496.5" rx="59.8" ry="52.76"/><circle class="cls-3" cx="655.61" cy="487.69" r="19.39"/><line class="cls-5" x1="791.29" y1="452.62" x2="762.62" y2="472.15"/><line class="cls-5" x1="754.97" y1="423.92" x2="734.14" y2="451"/><line class="cls-5" x1="672.35" y1="389.8" x2="667.66" y2="423.63"/><line class="cls-5" x1="537.2" y1="422.13" x2="552.26" y2="452.79"/><line class="cls-5" x1="585.23" y1="399.03" x2="595.82" y2="431.51"/><line class="cls-5" x1="716.81" y1="399.81" x2="702.3" y2="430.74"/><line class="cls-5" x1="625.92" y1="386.59" x2="628.18" y2="420.67"/></g></svg>