<svg width="1512" height="872" viewBox="0 0 1512 872" fill="none" xmlns="http://www.w3.org/2000/svg">
<path d="M755.489 870.709C1190.79 870.709 1543.66 548.938 1543.66 152.012C1543.66 -244.914 1190.79 -566.686 755.489 -566.686C320.192 -566.686 -32.6855 -244.914 -32.6855 152.012C-32.6855 548.938 320.192 870.709 755.489 870.709Z" fill="#EFEEEA"/>
<path d="M1011.65 643.023C1024.15 636.659 1035.9 629.254 1045.37 617.614C1057.49 602.688 1063.12 583.504 1060.32 563.857C1053.05 512.993 990.844 487.607 950.438 512.16C940.44 518.223 924.958 527.641 920.029 544.673C918.317 550.62 917.807 557.748 912.3 562.307C906.514 567.097 898.461 566.356 892.721 565.06C894.457 569.18 896.609 575.775 896.841 584.083C897.234 597.921 892.097 608.196 889.62 612.477C888.486 614.074 886.542 617.313 886.797 621.294C887.028 625.135 889.227 627.981 891.171 630.11C900.127 639.807 911.929 645.499 921.904 653.807C936.877 666.257 947.452 698.076 944.537 718.093C941.667 737.879 915.609 750.329 903.806 763.659C896.193 772.244 892.721 782.426 888.394 793.164C878.836 816.93 869.278 840.673 859.721 864.439C866.733 863.606 876.753 862.286 888.764 860.389C896.077 859.232 925.791 854.418 966.128 844.213C985.683 839.261 1000.38 834.934 1004.82 833.614C1032.48 825.376 1055.6 817.022 1073.16 810.219C1079.27 755.235 1070.38 737.231 1059.95 731.909C1054.72 729.224 1044.33 727.489 1023.38 724.966C1011.28 723.508 995.357 722.074 995.079 706.06C994.778 689.329 992.649 672.505 991.7 655.751C991.654 654.779 991.608 653.691 992.14 652.905C992.556 652.28 993.251 651.933 993.899 651.632C999.869 648.785 1005.82 646.055 1011.6 643.116L1011.65 643.023Z" fill="#FDC6B4"/>
<path d="M901.377 599.68C901.932 599.795 902.511 599.888 903.089 600.004" stroke="#75290E" stroke-miterlimit="10"/>
<path d="M906.028 600.535C906.537 600.628 907.047 600.697 907.556 600.79C912.647 601.623 917.599 602.248 922.367 602.71" stroke="#75290E" stroke-miterlimit="10"/>
<path d="M923.871 602.85C924.45 602.896 925.028 602.942 925.607 602.988" stroke="#75290E" stroke-miterlimit="10"/>
<path d="M992.534 694.558C975.895 704.278 959.255 713.997 942.593 723.716C943.588 721.726 944.861 718.533 945.254 714.437C945.555 711.289 945.255 708.628 944.884 706.707C940.001 709.045 935.095 711.382 930.212 713.696C931.022 716.612 931.948 721.24 931.462 726.887C931.254 729.34 930.513 736.259 926.139 743.039C923.732 746.765 922.575 746.649 914.591 753.8C908.435 759.307 903.529 763.704 899.41 769.443C894.666 776.039 892.676 782.009 891.542 785.295C886.867 798.717 875.712 826.139 859.768 864.392C873.861 862.749 893.023 860.134 915.586 855.853C923.617 854.325 961.107 847.105 1010.65 831.809C1027.29 826.672 1048.63 819.59 1073.21 810.149C1074.71 796.657 1075.13 785.318 1075.2 776.918C1075.31 760.187 1074.04 754.031 1071.77 748.454C1068.58 740.563 1064.14 735.565 1061.71 732.834C1042.73 711.405 998.042 696.34 992.557 694.535L992.534 694.558Z" fill="#E5CDC8"/>
<path d="M894.433 565.408C893.855 565.292 893.276 565.176 892.744 565.061C892.952 565.57 893.161 566.102 893.392 566.657" stroke="#BE8C57" stroke-width="0.75" stroke-miterlimit="10"/>
<path d="M894.527 569.965C895.684 573.76 896.702 578.527 896.864 584.058C897.258 597.896 892.12 608.171 889.644 612.452C888.51 614.049 886.566 617.289 886.821 621.269C887.052 625.11 889.251 627.957 891.194 630.086C900.15 639.782 911.953 645.475 921.927 653.782C936.9 666.232 947.476 698.052 944.56 718.069C941.691 737.855 915.633 750.305 903.83 763.634C896.216 772.219 892.745 782.401 888.417 793.139C879.299 815.817 870.181 838.473 861.063 861.151" stroke="#BE8C57" stroke-width="0.75" stroke-miterlimit="10"/>
<path d="M860.416 862.771C860.207 863.304 859.976 863.836 859.768 864.391C860.323 864.322 860.902 864.252 861.48 864.183" stroke="#BE8C57" stroke-width="0.75" stroke-miterlimit="10"/>
<path d="M864.882 863.744C871.338 862.934 879.461 861.8 888.788 860.319C896.101 859.162 925.815 854.348 966.152 844.143C985.707 839.191 1000.4 834.864 1004.85 833.545C1030.83 825.792 1052.82 817.971 1069.94 811.398" stroke="#BE8C57" stroke-width="0.75" stroke-miterlimit="10"/>
<path d="M1071.59 810.796C1072.12 810.588 1072.67 810.379 1073.21 810.171C1073.28 809.593 1073.32 809.014 1073.39 808.436" stroke="#BE8C57" stroke-width="0.75" stroke-miterlimit="10"/>
<path d="M1073.74 804.987C1078.74 754.03 1070.08 736.998 1059.99 731.838C1054.76 729.153 1044.37 727.418 1023.43 724.895C1011.32 723.437 995.403 722.003 995.125 705.989C994.824 689.258 992.695 672.434 991.746 655.68C991.7 654.708 991.654 653.62 992.186 652.834C992.602 652.209 993.297 651.862 993.945 651.561C999.915 648.714 1005.86 645.984 1011.65 643.045C1024.15 636.681 1035.9 629.276 1045.37 617.636C1057.49 602.71 1063.12 583.526 1060.32 563.879C1053.05 513.014 990.844 487.628 950.438 512.181C940.44 518.244 924.958 527.663 920.029 544.695C918.316 550.642 917.807 557.769 912.299 562.328C907.578 566.239 901.376 566.47 896.123 565.707" stroke="#BE8C57" stroke-width="0.75" stroke-miterlimit="10"/>
<path d="M1007.18 497.695C999.106 492.442 997 488.623 992.741 486.124C984.804 481.45 975.315 484.805 966.984 487.767C947.013 494.872 934.377 510.399 928.337 519.193C941.389 530.023 954.441 540.876 967.493 551.706C971.89 548.536 977.005 545.343 978.324 546.754C979.62 548.119 976.611 553.211 975.223 556.126C971.798 563.393 969.946 575.218 976.773 595.258C978.926 594.402 985.938 591.972 993.274 595.258C1003.02 599.632 1009.82 612.545 1006.16 623.93C1002.69 634.691 991.839 638.023 990.728 638.347C992.603 663.502 994.5 688.633 996.375 713.788C998.504 717.051 1000.79 719.781 1003.09 722.049C1022.5 741.465 1052.1 739.405 1061.2 738.433C1063.28 714.551 1065.69 695.182 1067.51 681.806C1072.93 642.119 1075.75 622.287 1077.51 612.244C1078.76 605.116 1081.28 591.301 1081.05 572.649C1080.94 563.508 1080.89 558.95 1080.1 555.664C1073.58 528.542 1038.68 512.783 1017.5 503.202C1015.63 502.369 1011.9 500.749 1007.21 497.695H1007.18Z" fill="#E1AB8E"/>
<path d="M929.332 517.783C928.985 518.269 928.661 518.755 928.337 519.195C928.777 519.565 929.216 519.935 929.679 520.306" stroke="#BE8C57" stroke-miterlimit="10"/>
<path d="M932.479 522.643C943.241 531.575 954.002 540.508 964.763 549.463" stroke="#BE8C57" stroke-miterlimit="10"/>
<path d="M966.175 550.619C966.615 550.989 967.054 551.36 967.517 551.73C967.98 551.406 968.466 551.059 968.929 550.735" stroke="#BE8C57" stroke-miterlimit="10"/>
<path d="M971.845 548.815C974.83 546.987 977.445 545.83 978.348 546.756C979.644 548.121 976.635 553.212 975.247 556.128C972.007 562.978 970.178 573.9 975.733 591.974" stroke="#BE8C57" stroke-miterlimit="10"/>
<path d="M976.241 593.639C976.426 594.171 976.588 594.726 976.797 595.282C977.19 595.12 977.745 594.911 978.417 594.703" stroke="#BE8C57" stroke-miterlimit="10"/>
<path d="M981.634 593.94C984.804 593.408 988.993 593.361 993.274 595.282C1003.02 599.656 1009.82 612.569 1006.16 623.954C1003.73 631.498 997.671 635.386 993.876 637.145" stroke="#BE8C57" stroke-miterlimit="10"/>
<path d="M992.348 637.793C991.515 638.117 990.936 638.302 990.705 638.348L990.844 640.084" stroke="#BE8C57" stroke-miterlimit="10"/>
<path d="M991.122 643.625C992.881 667.021 994.617 690.417 996.375 713.812C998.504 717.075 1000.8 719.806 1003.09 722.074C1020.49 739.476 1046.04 739.638 1057.73 738.759" stroke="#BE8C57" stroke-miterlimit="10"/>
<path d="M1059.46 738.618C1060.08 738.572 1060.66 738.503 1061.17 738.456C1061.22 737.878 1061.27 737.299 1061.33 736.721" stroke="#BE8C57" stroke-miterlimit="10"/>
<path d="M1061.64 733.25C1063.6 711.752 1065.8 694.234 1067.49 681.83C1072.91 642.143 1075.73 622.311 1077.49 612.267C1078.74 605.14 1081.26 591.325 1081.03 572.673C1080.91 563.532 1080.87 558.973 1080.08 555.687C1073.55 528.566 1038.66 512.806 1017.48 503.226C1015.61 502.393 1011.88 500.773 1007.18 497.718C999.105 492.465 997 488.647 992.741 486.148C984.804 481.473 975.315 484.829 966.984 487.791C949.003 494.178 936.969 507.414 930.327 516.393" stroke="#BE8C57" stroke-miterlimit="10"/>
<path d="M995.056 696.178C994.547 696.455 994.037 696.71 993.528 696.988" stroke="#A08A76" stroke-miterlimit="10"/>
<path d="M990.613 698.516C975.617 706.407 960.598 714.275 945.602 722.166" stroke="#A08A76" stroke-miterlimit="10"/>
<path d="M944.144 722.906C943.634 723.184 943.125 723.438 942.616 723.716L943.01 725.405" stroke="#A08A76" stroke-miterlimit="10"/>
<path d="M943.819 728.969C946.458 740.215 949.073 751.462 951.711 762.709" stroke="#A08A76" stroke-miterlimit="10"/>
<path d="M952.127 764.49L952.52 766.179C952.868 765.74 953.238 765.3 953.608 764.837" stroke="#A08A76" stroke-miterlimit="10"/>
<path d="M955.807 762.269C961.106 756.136 967.817 749.333 976.102 742.599C985.243 735.17 994.061 729.663 1001.67 725.59" stroke="#A08A76" stroke-miterlimit="10"/>
<path d="M1003.18 724.781C1003.69 724.503 1004.2 724.249 1004.71 723.994" stroke="#A08A76" stroke-miterlimit="10"/>
<path d="M363.97 545.412C360.036 549.809 354.737 556.566 350.108 565.707C345.457 574.917 341.106 583.479 341.661 594.842C342.17 605.371 346.637 612.938 350.895 620.112C357.143 630.688 364.526 637.676 369.478 641.726C367.65 609.629 365.822 577.509 363.97 545.412Z" fill="#965F39"/>
<path d="M944.884 706.707C944.352 706.962 943.843 707.216 943.311 707.448" stroke="#A08A76" stroke-miterlimit="10"/>
<path d="M939.468 709.299C937.548 710.224 935.627 711.127 933.706 712.053" stroke="#A08A76" stroke-miterlimit="10"/>
<path d="M931.786 712.979C931.253 713.233 930.744 713.488 930.212 713.719C930.328 714.205 930.443 714.761 930.582 715.408" stroke="#A08A76" stroke-miterlimit="10"/>
<path d="M931.138 718.719C931.924 724.689 931.971 733.599 927.203 741.443C926.833 742.068 926.417 742.647 926.231 742.924" stroke="#A08A76" stroke-miterlimit="10"/>
<path d="M925.236 744.266C924.842 744.775 924.449 745.214 924.125 745.585" stroke="#A08A76" stroke-miterlimit="10"/>
<path d="M1066.31 750.699C1065.78 750.63 1065.2 750.583 1064.6 750.537" stroke="#A08A76" stroke-miterlimit="10"/>
<path d="M1061.15 750.422C1058.97 750.468 1056.52 750.7 1053.88 751.301C1045.58 753.222 1037.94 758.267 1028.66 770.023C1013.66 789.022 1005.01 812.047 1000.82 825.168" stroke="#A08A76" stroke-miterlimit="10"/>
<path d="M1000.31 826.811C1000.12 827.389 999.962 827.945 999.8 828.454" stroke="#A08A76" stroke-miterlimit="10"/>
<path d="M976.103 742.6C975.848 743.109 975.593 743.641 975.339 744.15" stroke="#A08A76" stroke-miterlimit="10"/>
<path d="M973.858 747.182C965.99 763.427 958.122 781.778 950.971 802.142C945.463 817.832 941.043 832.804 937.502 846.805" stroke="#A08A76" stroke-miterlimit="10"/>
<path d="M937.085 848.424C936.946 848.979 936.807 849.535 936.668 850.09" stroke="#A08A76" stroke-miterlimit="10"/>
<path d="M926.231 750.861C926.046 751.417 925.861 751.949 925.676 752.504" stroke="#A08A76" stroke-miterlimit="10"/>
<path d="M924.611 755.812C919.427 771.572 914.313 787.794 909.291 804.479C904.223 821.372 899.479 837.941 895.059 854.186" stroke="#A08A76" stroke-miterlimit="10"/>
<path d="M894.619 855.875C894.457 856.43 894.318 856.986 894.156 857.541" stroke="#A08A76" stroke-miterlimit="10"/>
<path d="M598.076 590.052L579.516 587.576" stroke="#231F20" stroke-miterlimit="10"/>
<path d="M286.722 511.141C275.336 502.695 264.853 493.369 257.285 480.225C247.588 463.401 244.904 443.476 250.643 424.593C265.5 375.649 330.738 361.371 366.886 392.566C375.842 400.295 389.681 412.259 391.972 429.916C392.782 436.094 392.18 443.199 396.925 448.66C401.9 454.376 409.954 455.047 415.832 454.769C413.494 458.541 410.393 464.651 408.889 472.819C406.413 486.403 409.93 497.419 411.712 502.093C412.592 503.875 414.027 507.392 413.17 511.28C412.36 515.029 409.768 517.459 407.524 519.218C397.225 527.248 384.706 530.811 373.62 537.291C356.958 546.987 341.731 576.562 341.569 596.81C341.407 616.85 365.243 633.628 374.87 648.809C382.114 660.24 382.993 670.422 385.608 680.581C392.898 708.791 403.52 746.974 419.465 801.541C405.209 795.246 386.071 786.337 363.924 774.697C317.57 750.329 285.472 728.391 278.437 723.532C261.566 711.892 240.252 696.202 216.647 676.115C219.91 651.84 221.993 633.073 223.081 617.429C223.474 611.644 224.516 601.739 231.134 595.399C236.411 590.331 243.33 589.266 246.339 588.78C252.402 587.831 253.559 589.336 262.723 589.891C272.536 590.493 284.199 591.233 290.077 584.106C291.72 582.116 292.924 579.524 293.502 576.122C296.326 559.668 300.977 543.423 304.449 527.063C304.657 526.091 304.842 525.049 304.449 524.17C304.125 523.476 303.5 523.036 302.898 522.596C297.437 518.755 291.975 515.029 286.699 511.118L286.722 511.141Z" fill="#E0AA82"/>
<path d="M342.864 605.256C341.615 611.504 339.486 616.155 337.889 619.094C335.274 623.861 333.654 626.754 330.298 627.911C325.739 629.507 321.134 626.8 318.982 625.527C313.497 622.311 311.067 617.289 310.142 614.998C284.662 598.683 263.279 589.45 252.541 588.686C245.552 588.177 240.137 590.237 240.137 590.237C238.864 590.723 232.615 593.222 228.08 599.401C224.4 604.422 224.145 608.75 222.502 625.666C221.831 632.562 221.091 639.458 220.42 646.354C219.725 653.505 218.591 663.78 216.717 676.299C228.519 686.204 244.279 698.908 263.441 712.885C279.039 724.271 306.346 744.057 344.693 765.439C364.317 776.385 389.426 789.182 419.534 801.725C398.082 728.506 386.21 685.417 383.317 670.444C382.993 668.755 381.928 663.224 378.92 656.467C374.43 646.354 368.599 640.268 364.456 635.594C358.74 629.091 350.987 619.279 342.888 605.256H342.864Z" fill="#A1AAB2"/>
<path d="M286.722 511.325C275.336 502.878 264.853 493.552 257.285 480.408C247.588 463.585 244.904 443.66 250.643 424.777C265.5 375.833 330.738 361.555 366.886 392.749C375.842 400.478 389.681 412.442 391.972 430.099C392.782 436.278 392.18 443.382 396.925 448.844C401.9 454.559 409.954 455.231 415.832 454.953C413.494 458.725 410.393 464.834 408.889 473.003C406.413 486.587 409.93 497.602 411.712 502.277C412.592 504.059 414.027 507.576 413.17 511.464C412.36 515.213 409.768 517.642 407.524 519.401C397.225 527.431 384.706 530.995 373.62 537.475C356.958 547.171 341.731 576.745 341.569 596.994C341.407 617.034 365.243 633.811 374.87 648.992C382.114 660.424 382.993 670.606 385.608 680.765C392.898 708.974 403.52 747.157 419.465 801.724C405.209 795.43 386.071 786.52 363.924 774.88C317.57 750.513 285.472 728.575 278.437 723.715C261.566 712.075 240.252 696.385 216.647 676.299C219.91 652.024 221.993 633.256 223.081 617.613C223.474 611.827 224.516 601.923 231.134 595.582C236.411 590.514 243.33 589.45 246.339 588.964C252.402 588.015 253.559 589.519 262.723 590.075C272.536 590.676 284.199 591.417 290.077 584.289C291.72 582.299 292.924 579.707 293.502 576.306C296.326 559.852 300.977 543.607 304.449 527.246C304.657 526.274 304.842 525.233 304.449 524.353C304.125 523.659 303.5 523.219 302.898 522.78C297.437 518.938 291.975 515.213 286.699 511.302L286.722 511.325Z" stroke="#833A29" stroke-miterlimit="10"/>
<path d="M349.529 374.931C354.366 380.068 356.819 387.196 358.485 392.078C364.109 408.393 361.771 422.648 360.337 430.747C358.74 439.842 356.703 451.343 347.979 462.173C341.059 470.735 333.075 474.993 328.262 477.053C326.225 475.641 321.944 473.188 316.668 473.744C307.156 474.762 300.028 485.014 299.265 494.825C298.547 504.175 303.777 510.723 304.286 511.371C310.118 518.453 318.033 518.777 319.352 518.823C312.618 591.695 305.883 664.566 299.149 737.438C294.497 734.407 289.869 731.375 285.217 728.367C284.639 720.939 283.806 710.409 282.811 697.543C282.672 695.877 282.556 694.187 282.417 692.521C281.306 678.891 277.465 641.217 265.523 609.398C262.376 601.021 258.141 591.116 250.273 589.08C247.334 588.316 243.585 589.242 243.052 589.334C243.052 589.334 236.642 590.607 231.134 595.606C222.849 603.103 222.618 619.788 221.669 634.367C221.021 644.526 219.679 658.827 216.67 676.299C208.386 669.565 199.8 662.09 191.075 653.829C185.591 648.622 180.407 643.462 175.547 638.394C184.156 603.497 214.125 482.792 232.407 426.212C232.916 424.615 235.23 417.95 240.137 410.082C265.732 369.03 328.748 352.808 349.529 374.931Z" fill="#965F39"/>
<path d="M349.529 374.931C354.366 380.068 356.819 387.196 358.485 392.078C364.109 408.393 361.771 422.648 360.337 430.747C358.74 439.842 356.703 451.343 347.979 462.173C341.059 470.735 333.075 474.993 328.262 477.053C326.225 475.641 321.944 473.188 316.668 473.744C307.156 474.762 300.028 485.014 299.265 494.825C298.547 504.175 303.777 510.723 304.286 511.371C310.118 518.453 318.033 518.777 319.352 518.823C312.618 591.695 305.883 664.566 299.149 737.438C294.497 734.407 289.869 731.375 285.217 728.367C284.639 720.939 283.806 710.409 282.811 697.543C282.672 695.877 282.556 694.187 282.417 692.521C281.306 678.891 277.465 641.217 265.523 609.398C262.376 601.021 258.141 591.116 250.273 589.08C247.334 588.316 243.585 589.242 243.052 589.334C243.052 589.334 236.642 590.607 231.134 595.606C222.849 603.103 222.618 619.788 221.669 634.367C221.021 644.526 219.679 658.827 216.67 676.299C208.386 669.565 199.8 662.09 191.075 653.829C185.591 648.622 180.407 643.462 175.547 638.394C184.156 603.497 214.125 482.792 232.407 426.212C232.916 424.615 235.23 417.95 240.137 410.082C265.732 369.03 328.748 352.808 349.529 374.931Z" stroke="#621E1C" stroke-miterlimit="10"/>
<path d="M342.912 602.988C342.958 607.617 342.264 615.137 337.774 621.802C336.385 623.862 334.974 625.921 332.359 627.171C325.833 630.341 318.497 625.343 316.784 624.07C316.715 624.024 316.668 623.977 316.599 623.931C316.599 623.931 316.553 623.908 316.506 623.862C316.414 623.792 313.729 620.066 310.119 614.975" stroke="#4E7A89" stroke-miterlimit="10"/>
<path d="M363.971 545.412C365.799 577.509 367.627 609.629 369.479 641.726" stroke="#621E1C" stroke-miterlimit="10"/>
<path d="M402.502 491.935C396.069 491.24 389.612 490.546 383.179 489.875" stroke="#75290E" stroke-miterlimit="10"/>
<path d="M319.398 518.824C322.615 518.407 325.832 517.991 329.072 517.574" stroke="#621E1C" stroke-miterlimit="10"/>
<path d="M324.212 512.922L325.554 530.509" stroke="white" stroke-miterlimit="10"/>
<path d="M325.555 537.128C327.536 537.128 329.142 535.408 329.142 533.287C329.142 531.165 327.536 529.445 325.555 529.445C323.574 529.445 321.968 531.165 321.968 533.287C321.968 535.408 323.574 537.128 325.555 537.128Z" stroke="white" stroke-miterlimit="10"/>
<path d="M109.522 329.296C101.122 317.355 93.8321 304.813 90.4533 289.354C86.1257 269.568 89.4814 248.88 100.59 231.802C129.355 187.556 196.12 193.48 221.53 235.782C227.825 246.242 237.568 262.464 234.513 280.792C233.448 287.202 230.787 294.121 233.726 301.017C236.804 308.261 244.325 311.431 250.041 312.958C246.686 315.99 241.895 321.15 238.031 328.833C231.62 341.63 231.736 353.71 232.06 358.894C232.384 360.93 232.708 364.91 230.741 368.52C228.843 372.015 225.65 373.634 222.965 374.699C210.885 379.466 192.765 380.322 185.105 382.243C164.902 387.311 151.502 416.978 149.905 438.847C148.378 459.442 156.64 462.543 163.953 502.022C164.855 506.859 166.128 514.472 169.252 556.774C170.71 576.583 172.538 603.358 174.251 635.408C143.518 607.014 121.302 580.564 106.121 560.616C74.763 519.401 53.3797 479.483 39.4712 453.495C35.6759 446.391 32.6212 440.49 30.5615 436.486C32.6212 428.734 35.7454 423.134 38.0596 419.639C40.7441 415.566 43.2665 411.748 47.895 408.879C52.5002 406.009 56.9667 405.685 65.6913 405.13C79.9931 404.227 84.2512 406.564 91.1707 403.14C94.5495 401.473 96.4008 399.483 99.849 395.758C116.905 377.453 118.849 355.145 121.857 350.655C122.065 350.354 122.899 349.174 122.713 347.763C122.621 346.976 122.158 346.328 121.695 345.726C117.599 340.219 113.48 334.804 109.569 329.273L109.522 329.296Z" fill="#CE9265"/>
<path d="M109.522 329.296C101.122 317.355 93.8321 304.813 90.4533 289.354C86.1257 269.568 89.4814 248.88 100.59 231.802C129.355 187.556 196.12 193.48 221.53 235.782C227.825 246.242 237.568 262.464 234.513 280.792C233.448 287.202 230.787 294.121 233.726 301.017C236.804 308.261 244.325 311.431 250.041 312.958C246.686 315.99 241.895 321.15 238.031 328.833C231.62 341.63 231.736 353.71 232.06 358.894C232.384 360.93 232.708 364.91 230.741 368.52C228.843 372.015 225.65 373.634 222.965 374.699C210.885 379.466 192.765 380.322 185.105 382.243C164.902 387.311 151.502 416.978 149.905 438.847C148.378 459.442 156.64 462.543 163.953 502.022C164.855 506.859 166.128 514.472 169.252 556.774C170.71 576.583 172.538 603.358 174.251 635.408C143.518 607.014 121.302 580.564 106.121 560.616C74.763 519.401 53.3797 479.483 39.4712 453.495C35.6759 446.391 32.6212 440.49 30.5615 436.486C32.6212 428.734 35.7454 423.134 38.0596 419.639C40.7441 415.566 43.2665 411.748 47.895 408.879C52.5002 406.009 56.9667 405.685 65.6913 405.13C79.9931 404.227 84.2512 406.564 91.1707 403.14C94.5495 401.473 96.4008 399.483 99.849 395.758C116.905 377.453 118.849 355.145 121.857 350.655C122.065 350.354 122.899 349.174 122.713 347.763C122.621 346.976 122.158 346.328 121.695 345.726C117.599 340.219 113.48 334.804 109.569 329.273L109.522 329.296Z" stroke="#954E3F" stroke-miterlimit="10"/>
<path d="M212.204 223.658C213.13 226.713 215.19 235.414 207.622 252.747C196.074 279.22 178.926 285.167 170.178 300.024C161.338 315.02 157.034 340.429 177.19 386.133C171.868 397.773 165.18 415.406 162.217 437.622C160.597 449.794 160.736 458.31 164.694 506.768C167.841 545.182 169.368 559.784 171.22 585.194C172.77 606.53 173.673 624.001 174.228 635.41C131.624 595.237 105.242 560.594 90.176 538.633C73.6063 514.474 57.3142 486.033 53.3106 478.998C43.6603 462.036 36.0234 447.411 30.5156 436.488C38.3839 395.135 43.4521 362.32 46.5994 340.244C50.9733 309.512 53.38 287.528 67.1959 260.684C72.5186 250.317 78.5818 238.376 90.9166 226.412C111.791 206.163 149.165 186.424 182.351 197.971C186.933 199.568 207.044 206.557 212.204 223.635V223.658Z" fill="#C1958A"/>
<path d="M226.345 338.391C219.471 336.516 212.621 334.642 205.748 332.768" stroke="#75290E" stroke-miterlimit="10"/>
<path d="M212.204 223.657C213.13 226.711 215.189 235.412 207.622 252.745C196.074 279.219 178.926 285.166 170.178 300.023C161.338 315.018 157.033 340.427 177.19 386.131C171.543 397.702 164.554 415.382 162.217 437.62C158.699 471.036 168.234 493.298 162.68 495.659C152.705 499.87 105.033 435.584 79.3681 414.225C76.1051 411.494 69.417 405.454 60.6462 405.801C45.4186 406.38 35.1204 425.402 32.1582 431.349C38.8926 391.616 43.6135 360.537 46.5989 340.288C51.5744 306.548 54.1664 286.022 67.1954 260.729C72.5181 250.362 78.5813 238.421 90.916 226.457C111.79 206.208 149.165 186.469 182.351 198.016C186.933 199.613 207.043 206.602 212.204 223.68V223.657Z" stroke="#874D33" stroke-miterlimit="10"/>
<path d="M176.102 387.381C165.874 394.231 146.48 405.246 119.636 409.226C96.5861 412.628 77.6096 409.434 66.2236 406.611" stroke="#874D33" stroke-miterlimit="10"/>
<path d="M1282.69 321.984C1282.11 322.1 1281.53 322.216 1281 322.332C1281.37 322.725 1281.76 323.165 1282.16 323.604" stroke="#8A7F68" stroke-miterlimit="10"/>
<path d="M1284.33 326.289C1286.79 329.506 1289.47 333.787 1291.62 339.156C1296.92 352.439 1295.76 364.472 1295 369.633C1294.51 371.646 1293.84 375.557 1295.49 379.329C1297.08 382.962 1300.11 384.86 1302.71 386.155C1314.32 391.918 1332.33 394.324 1339.78 396.893C1359.47 403.673 1370.31 434.382 1370.03 456.273C1369.77 476.938 1361.28 479.322 1350.66 518.037C1350.5 518.662 1350.31 519.31 1350.1 520.097C1344.02 543.794 1340.71 572.142 1340.71 572.142C1338.99 587.392 1335.92 608.797 1330.45 640.732" stroke="#8A7F68" stroke-miterlimit="10"/>
<path d="M1330.13 642.467C1330.04 643.045 1329.95 643.601 1329.83 644.179C1330.25 643.786 1330.66 643.392 1331.08 642.999" stroke="#8A7F68" stroke-miterlimit="10"/>
<path d="M1333.58 640.592C1359.36 615.762 1388.63 583.526 1416.91 543.006C1443.02 505.609 1462.09 470.018 1476.02 439.472C1475.81 438.315 1475.37 436.672 1474.24 435.121C1471.37 431.164 1466.14 431.257 1456.83 429.868C1442.65 427.739 1438.2 429.729 1431.61 425.726C1428.39 423.759 1426.7 421.63 1423.58 417.65C1408.14 397.956 1408.1 375.579 1405.5 370.835C1405.34 370.511 1404.6 369.284 1404.9 367.873C1405.06 367.109 1405.6 366.484 1406.08 365.929C1410.62 360.792 1415.2 355.747 1419.55 350.563C1428.95 339.386 1437.28 327.491 1441.95 312.403C1447.95 293.057 1446.37 272.161 1436.77 254.203C1411.89 207.666 1344.87 207.874 1315.94 247.862C1308.79 257.767 1297.71 273.086 1299.17 291.622C1299.68 298.102 1301.76 305.229 1298.24 311.848C1295.23 317.517 1289.52 320.225 1284.36 321.613" stroke="#8A7F68" stroke-miterlimit="10"/>
<path d="M1419.57 350.587C1428.97 339.409 1437.3 327.515 1441.98 312.427C1447.97 293.081 1446.4 272.184 1436.79 254.226C1411.91 207.689 1344.9 207.898 1315.97 247.886C1308.82 257.79 1297.73 273.11 1299.19 291.646C1299.7 298.125 1301.78 305.253 1298.26 311.871C1294.58 318.837 1286.81 321.336 1280.98 322.377C1284.05 325.687 1288.41 331.217 1291.6 339.201C1296.9 352.484 1295.74 364.518 1294.98 369.678C1294.49 371.691 1293.82 375.602 1295.46 379.374C1297.06 383.007 1300.09 384.905 1302.68 386.201C1314.3 391.963 1332.31 394.37 1339.76 396.938C1359.45 403.719 1370.28 434.427 1370 456.319C1369.75 476.984 1361.26 479.368 1350.63 518.083C1350.47 518.708 1350.29 519.356 1350.08 520.142C1343.99 543.839 1340.68 572.187 1340.68 572.187C1338.9 587.969 1335.68 610.37 1329.83 644.226C1356.49 618.956 1387.25 585.563 1416.91 543.052C1443.02 505.656 1462.09 470.065 1476.02 439.518C1475.81 438.361 1475.37 436.718 1474.24 435.168C1471.37 431.211 1466.14 431.303 1456.83 429.915C1442.65 427.786 1438.2 429.776 1431.61 425.772C1428.39 423.805 1426.7 421.676 1423.58 417.696C1408.14 398.003 1408.1 375.625 1405.5 370.881C1405.34 370.557 1404.6 369.331 1404.9 367.919C1405.06 367.156 1405.6 366.531 1406.08 365.975C1410.62 360.838 1415.2 355.793 1419.55 350.61L1419.57 350.587Z" fill="#D6A98A"/>
<path d="M1326.29 236.547C1325.11 239.509 1322.31 248.025 1328.37 265.937C1337.63 293.313 1354.2 300.695 1361.65 316.223C1369.17 331.912 1371.3 357.599 1347.3 401.429C1355.42 423.39 1357.46 441.532 1357.83 454.006C1358.5 476.267 1353.94 483.673 1345.84 536.365C1342.95 555.202 1343.69 553.166 1339.2 583.897C1335.48 609.353 1332.14 630.18 1329.81 644.18C1370.65 605.558 1396.99 571.586 1413.03 548.491C1427.56 527.525 1440.61 505.449 1457.39 477.031C1462.32 468.677 1468.73 457.546 1476 443.245C1479.07 437.182 1481.48 432.137 1483.05 428.805C1483.05 401.822 1482.34 379.537 1481.6 363.662C1479.26 312.775 1475.67 295.673 1474.1 288.777C1467.43 259.388 1464.17 244.624 1452.25 231.989C1425.2 203.34 1382.15 205.839 1358.16 213.522C1348.97 216.461 1332.05 221.876 1326.22 236.547H1326.29Z" fill="#BF977C"/>
<path d="M1326.29 236.547C1325.11 239.509 1322.31 248.025 1328.37 265.936C1337.63 293.312 1354.2 300.695 1361.65 316.222C1369.17 331.912 1371.3 357.599 1347.3 401.428C1351.93 413.439 1357.39 431.651 1357.83 454.005C1358.48 487.583 1347.07 508.989 1352.42 511.789C1362 516.834 1414.99 456.852 1442.37 437.76C1446.35 434.983 1454.33 428.619 1461.74 430.957C1469.54 433.41 1471.64 443.731 1476.02 443.221C1478.24 442.967 1480.85 439.912 1483.08 428.781C1483.08 401.799 1482.36 379.514 1481.62 363.639C1479.28 312.751 1475.69 295.65 1474.12 288.754C1467.46 259.364 1464.19 244.6 1452.27 231.965C1425.22 203.316 1382.18 205.816 1358.18 213.498C1348.99 216.437 1332.07 221.852 1326.24 236.524L1326.29 236.547Z" fill="#BC8561"/>
<path d="M1302.41 349.685C1302.98 349.593 1303.54 349.477 1304.12 349.361" stroke="#75290E" stroke-miterlimit="10"/>
<path d="M1307.64 348.711C1311.73 347.971 1315.85 347.207 1319.95 346.467" stroke="#75290E" stroke-miterlimit="10"/>
<path d="M1321.71 346.144C1322.29 346.052 1322.84 345.936 1323.42 345.82" stroke="#75290E" stroke-miterlimit="10"/>
<path d="M1348.13 399.9C1347.86 400.409 1347.58 400.919 1347.3 401.428C1347.51 401.983 1347.7 402.515 1347.9 403.071" stroke="#725539" stroke-miterlimit="10"/>
<path d="M1349.06 406.381C1355.73 426.12 1357.48 442.481 1357.83 454.006C1358.5 476.267 1353.94 483.673 1345.84 536.365C1342.95 555.202 1343.69 553.166 1339.2 583.897C1335.78 607.339 1332.65 626.871 1330.38 640.755" stroke="#725539" stroke-miterlimit="10"/>
<path d="M1330.11 642.467C1330.02 643.045 1329.92 643.624 1329.83 644.179C1330.25 643.786 1330.66 643.392 1331.08 642.976" stroke="#725539" stroke-miterlimit="10"/>
<path d="M1333.6 640.593C1372.3 603.475 1397.52 570.869 1413.05 548.491C1427.58 527.525 1440.63 505.449 1457.41 477.031C1462.34 468.677 1468.75 457.546 1476.02 443.245C1479.1 437.182 1481.5 432.137 1483.08 428.805C1483.08 401.822 1482.36 379.537 1481.62 363.662C1479.28 312.775 1475.69 295.673 1474.12 288.777C1467.46 259.388 1464.19 244.624 1452.27 231.989C1425.22 203.34 1382.18 205.839 1358.18 213.522C1348.99 216.461 1332.07 221.876 1326.24 236.547C1325.06 239.509 1322.26 248.025 1328.33 265.937C1337.58 293.313 1354.15 300.695 1361.6 316.223C1368.96 331.542 1371.16 356.396 1348.92 398.374" stroke="#725539" stroke-miterlimit="10"/>
<path d="M1348.13 399.9C1347.86 400.409 1347.58 400.919 1347.3 401.428C1347.51 401.96 1347.72 402.492 1347.9 403.048" stroke="#725539" stroke-miterlimit="10"/>
<path d="M1349.11 406.311C1353.25 418.136 1357.46 434.497 1357.85 454.005C1358.5 487.583 1347.09 508.989 1352.44 511.789C1362.02 516.834 1415.02 456.852 1442.39 437.76C1446.37 434.983 1454.36 428.619 1461.76 430.957C1469.56 433.41 1471.67 443.731 1476.04 443.221C1478.26 442.967 1480.88 439.912 1483.1 428.781C1483.1 401.799 1482.38 379.514 1481.64 363.639C1479.3 312.751 1475.72 295.65 1474.14 288.754C1467.48 259.364 1464.22 244.6 1452.3 231.965C1425.24 203.316 1382.2 205.816 1358.2 213.498C1349.01 216.437 1332.1 221.852 1326.27 236.524C1325.09 239.486 1322.28 248.002 1328.35 265.913C1337.61 293.289 1354.17 300.671 1361.63 316.199C1368.99 331.519 1371.18 356.372 1348.94 398.327" stroke="#725539" stroke-miterlimit="10"/>
<path d="M1349.92 402.77C1350.36 403.117 1350.8 403.487 1351.28 403.834" stroke="#725539" stroke-miterlimit="10"/>
<path d="M1353.97 405.871C1364.29 413.531 1381.25 423.875 1404.35 429.336C1424.92 434.196 1442.65 433.363 1454.4 431.789" stroke="#725539" stroke-miterlimit="10"/>
<path d="M1456.07 431.557C1456.65 431.465 1457.23 431.372 1457.78 431.303" stroke="#725539" stroke-miterlimit="10"/>
<path d="M490.488 636.174C477.992 629.81 466.235 622.405 456.77 610.765C444.644 595.839 439.02 576.654 441.821 557.008C449.087 506.143 511.293 480.757 551.699 505.31C561.697 511.373 577.179 520.792 582.108 537.823C583.821 543.771 584.33 550.898 589.838 555.457C595.623 560.247 603.676 559.507 609.416 558.211C607.68 562.33 605.528 568.925 605.296 577.233C604.903 591.071 610.041 601.346 612.517 605.627C613.651 607.224 615.595 610.464 615.34 614.444C615.271 615.578 614.877 619.142 610.966 623.261C602.843 631.846 587.477 634.554 580.326 638.002C559.545 648.022 548.135 693.148 561.257 718.857C569.31 734.663 581.067 732.187 598.331 756.786C600.159 759.401 601.848 761.854 603.561 764.746C609.508 774.767 612.679 783.375 613.743 786.291C617.978 797.746 629.04 825.145 644.337 863.074C635.937 862.194 624.921 860.875 612.031 858.862C607.449 858.145 587.454 854.951 558.665 848.101C516.986 838.174 486.277 827.552 478.154 824.705C459.594 818.18 444.042 811.931 432.286 806.91C432.008 803.184 431.707 798 431.569 791.799C430.712 755.49 430.203 734.269 442.168 725.036C445.13 722.745 456.284 720.778 478.732 718.094C490.836 716.636 506.757 715.201 507.035 699.187C507.336 682.456 509.465 665.633 510.414 648.878C510.46 647.906 510.506 646.819 509.974 646.032C509.558 645.407 508.863 645.06 508.215 644.759C502.245 641.913 496.297 639.182 490.512 636.243L490.488 636.174Z" fill="#FDC6B4"/>
<path d="M490.488 636.174C477.992 629.81 466.235 622.405 456.77 610.765C444.644 595.839 439.02 576.654 441.821 557.008C449.087 506.143 511.293 480.757 551.699 505.31C561.697 511.373 577.179 520.792 582.108 537.823C583.821 543.771 584.33 550.898 589.838 555.457C595.623 560.247 603.676 559.507 609.416 558.211C607.68 562.33 605.528 568.925 605.296 577.233C604.903 591.071 610.041 601.346 612.517 605.627C613.651 607.224 615.595 610.464 615.34 614.444C615.271 615.578 614.877 619.142 610.966 623.261C602.843 631.846 587.477 634.554 580.326 638.002C559.545 648.022 548.135 693.148 561.257 718.857C569.31 734.663 581.067 732.187 598.331 756.786C600.159 759.401 601.848 761.854 603.561 764.746C609.508 774.767 612.679 783.375 613.743 786.291C617.978 797.746 629.04 825.145 644.337 863.074C635.937 862.194 624.921 860.875 612.031 858.862C607.449 858.145 587.454 854.951 558.665 848.101C516.986 838.174 486.277 827.552 478.154 824.705C459.594 818.18 444.042 811.931 432.286 806.91C432.008 803.184 431.707 798 431.569 791.799C430.712 755.49 430.203 734.269 442.168 725.036C445.13 722.745 456.284 720.778 478.732 718.094C490.836 716.636 506.757 715.201 507.035 699.187C507.336 682.456 509.465 665.633 510.414 648.878C510.46 647.906 510.506 646.819 509.974 646.032C509.558 645.407 508.863 645.06 508.215 644.759C502.245 641.913 496.297 639.182 490.512 636.243L490.488 636.174Z" stroke="#959590" stroke-miterlimit="10"/>
<path d="M499.815 683.334C500.787 685.926 502.546 691.804 501.111 699.047C499.121 709.021 492.433 714.714 490.465 716.264C475.423 719.573 463.829 720.753 455.775 721.216C451.888 721.424 447.977 721.54 443.904 724.063C436.313 728.783 433.976 738.294 432.61 744.219C430.643 752.735 431.083 759.538 431.245 761.945C431.893 772.196 432.448 786.637 432.309 806.885C442.075 811.166 455.428 816.743 471.535 822.621C478.27 825.074 509.396 836.321 553.273 846.757C577.688 852.566 608.398 858.675 644.337 863.049C628.74 822.853 616.613 792.676 611.152 779.717C609.971 776.894 607.634 771.41 603.561 764.745C601.524 761.389 597.104 754.54 589.907 746.695C578.892 734.684 575.166 735.402 571.532 728.645C569.01 723.947 566.834 716.241 569.959 703.652C565.076 701.315 560.17 698.977 555.287 696.663C556.05 702.333 556.814 708.003 557.578 713.672C538.347 703.56 519.092 693.47 499.861 683.357L499.815 683.334Z" fill="#C6B085"/>
<path d="M522.054 621.177C521.083 621.454 509.697 624.416 501.944 616.757C493.196 608.125 493.729 590.491 503.495 582.577C509.743 577.486 518.861 577.162 526.683 581.466C529.668 579.823 533.903 577.069 538.023 572.649C550.126 559.667 551.607 542.774 552.463 532.962C553.782 517.758 555.263 500.935 546.446 490.012C529.853 469.416 485.073 480.131 457.627 499.893C450.545 504.984 429.324 520.744 419.998 551.151C404.932 600.28 435.133 641.286 440.617 648.715C450.592 662.276 458.576 665.955 463.297 667.459C480.792 673.036 496.529 662.53 500.393 659.73C518.583 646.563 521.592 624.81 522.031 621.13L522.054 621.177Z" fill="#644534"/>
<path d="M522.054 621.177C521.083 621.454 509.697 624.416 501.944 616.757C493.196 608.125 493.729 590.491 503.495 582.577C509.743 577.486 518.861 577.162 526.683 581.466C529.668 579.823 533.903 577.069 538.023 572.649C550.126 559.667 551.607 542.774 552.463 532.962C553.782 517.758 555.263 500.935 546.446 490.012C529.853 469.416 485.073 480.131 457.627 499.893C450.545 504.984 429.324 520.744 419.998 551.151C404.932 600.28 435.133 641.286 440.617 648.715C450.592 662.276 458.576 665.955 463.297 667.459C480.792 673.036 496.529 662.53 500.393 659.73C518.583 646.563 521.592 624.81 522.031 621.13L522.054 621.177Z" stroke="#61311A" stroke-miterlimit="10"/>
<path d="M423.121 551.731C420.113 545.205 416.965 538.402 410.231 535.741C398.475 531.112 383.78 542.266 376.721 552.819C364.734 570.823 367.511 597.713 380.331 612.917C382.53 615.508 392.342 627.172 404.029 625.043C412.545 623.492 417.475 615.439 420.761 610.07C431.591 592.367 431.082 568.971 423.098 551.708L423.121 551.731Z" stroke="#61311A" stroke-miterlimit="10"/>
<path d="M587.06 530.117C585.718 531.089 584.399 532.038 583.057 533.01C587.523 541.063 592.013 549.116 596.479 557.169C597.891 556.359 599.326 555.526 600.737 554.693C596.178 546.501 591.619 538.309 587.06 530.117Z" fill="#BBA783"/>
<path d="M587.06 530.117C591.619 538.309 596.178 546.501 600.737 554.693C599.326 555.526 597.891 556.336 596.479 557.169C592.013 549.116 587.523 541.063 583.057 533.01L587.06 530.117Z" stroke="#829695" stroke-miterlimit="10"/>
<path d="M499.815 683.334C519.046 693.447 538.3 703.536 557.531 713.649C554.222 727.788 550.913 741.951 547.603 756.09C542.859 749.564 535.269 740.678 524.022 732.532C511.155 723.183 498.727 718.601 490.442 716.264C492.733 714.505 496.251 711.312 498.727 706.267C503.842 695.853 500.602 685.694 499.792 683.357L499.815 683.334Z" stroke="#777A5F" stroke-miterlimit="10"/>
<path d="M555.24 696.664C560.123 699.001 565.029 701.339 569.912 703.653C568.802 708.304 566.51 720.8 572.921 731.376C573.43 732.209 573.985 732.996 573.985 732.996C574.726 734.037 575.443 734.87 576.022 735.518" stroke="#777A5F" stroke-miterlimit="10"/>
<path d="M433.813 740.656C436.822 740.286 441.219 740.101 446.241 741.258C454.549 743.178 462.186 748.223 471.466 759.979C487.827 780.69 496.621 806.215 500.324 818.41" stroke="#777A5F" stroke-miterlimit="10"/>
<path d="M1204.68 525.905C1216.06 517.458 1226.55 508.133 1234.11 494.988C1243.81 478.165 1246.5 458.24 1240.76 439.357C1225.9 390.413 1160.66 376.135 1124.51 407.329C1115.56 415.058 1101.72 427.022 1099.43 444.679C1098.62 450.858 1099.22 457.962 1094.47 463.424C1089.5 469.14 1081.45 469.811 1075.57 469.533C1077.9 473.305 1081.01 479.414 1082.51 487.583C1084.99 501.167 1081.47 512.182 1079.69 516.857C1078.81 518.639 1077.37 522.156 1078.23 526.044C1079.04 529.793 1081.63 532.223 1083.88 533.981C1094.17 542.011 1106.69 545.575 1117.78 552.055C1138.19 563.949 1149.16 592.598 1149.83 611.574C1150.27 624.186 1146.57 627.518 1125 675.513C1111.39 705.782 1104.52 721.194 1100.65 735.426C1093.78 760.812 1093.29 783.884 1094.68 802.003C1131.36 786.475 1160.71 770.531 1182.41 757.572C1208.63 741.905 1229.35 727.164 1241.38 718.579C1257.14 707.309 1270.29 697.243 1280.21 689.375C1277.39 683.173 1273.2 674.449 1267.58 664.29C1256.56 644.411 1251.03 634.461 1245.11 629.346C1233.93 619.696 1205.23 602.664 1201.3 598.892C1200.6 598.244 1200.07 597.481 1200.07 597.481C1199.33 596.463 1198.54 594.75 1197.87 590.886C1195.05 574.432 1190.4 558.187 1186.93 541.826C1186.72 540.877 1186.53 539.813 1186.93 538.933C1187.25 538.239 1187.88 537.8 1188.48 537.36C1193.94 533.518 1199.4 529.793 1204.68 525.882V525.905Z" fill="#CE9265"/>
<path d="M1077.3 468.492C1076.7 468.492 1076.12 468.468 1075.57 468.445C1075.85 468.908 1076.15 469.394 1076.45 469.926" stroke="#665F37" stroke-width="0.75" stroke-miterlimit="10"/>
<path d="M1078.09 473.027C1079.8 476.568 1081.51 481.08 1082.51 486.495C1084.99 500.079 1081.47 511.095 1079.69 515.769C1078.81 517.551 1077.37 521.069 1078.23 524.956C1079.04 528.705 1081.63 531.135 1083.88 532.894C1094.17 540.924 1106.69 544.487 1117.78 550.967C1138.19 562.862 1149.16 591.51 1149.83 610.486C1150.27 623.098 1146.57 626.431 1125 674.426C1111.39 704.694 1104.52 720.106 1100.65 734.338C1094.2 758.127 1093.36 779.903 1094.45 797.444" stroke="#665F37" stroke-width="0.75" stroke-miterlimit="10"/>
<path d="M1094.54 799.203C1094.59 799.782 1094.64 800.36 1094.66 800.916C1095.19 800.684 1095.72 800.453 1096.26 800.245" stroke="#665F37" stroke-width="0.75" stroke-miterlimit="10"/>
<path d="M1099.52 798.857C1133.96 783.977 1161.68 768.888 1182.41 756.508C1208.63 740.841 1229.35 726.1 1241.38 717.515C1255.75 707.263 1267.92 697.984 1277.48 690.463" stroke="#665F37" stroke-width="0.75" stroke-miterlimit="10"/>
<path d="M1278.87 689.351C1279.33 688.981 1279.77 688.634 1280.24 688.286C1280.01 687.777 1279.77 687.245 1279.52 686.713" stroke="#665F37" stroke-width="0.75" stroke-miterlimit="10"/>
<path d="M1278.04 683.566C1275.38 677.965 1271.9 671 1267.6 663.201C1256.58 643.323 1251.05 633.372 1245.13 628.258C1233.95 618.608 1205.26 601.576 1201.32 597.804C1200.63 597.156 1200.09 596.393 1200.09 596.393C1199.35 595.374 1198.57 593.662 1197.9 589.797C1195.07 573.344 1190.42 557.099 1186.95 540.738C1186.74 539.789 1186.56 538.725 1186.95 537.845C1187.27 537.151 1187.9 536.711 1188.5 536.272C1193.96 532.43 1199.42 528.704 1204.7 524.794C1216.09 516.347 1226.57 507.021 1234.14 493.877C1243.83 477.053 1246.52 457.129 1240.78 438.245C1225.92 389.302 1160.68 375.024 1124.54 406.218C1115.58 413.947 1101.74 425.911 1099.45 443.568C1098.64 449.747 1099.24 456.851 1094.5 462.312C1090.45 466.964 1084.36 468.283 1079.06 468.445" stroke="#665F37" stroke-width="0.75" stroke-miterlimit="10"/>
<path d="M1200.07 596.415C1189.52 606.968 1178.8 618.099 1168 629.808C1159.74 638.764 1151.82 647.65 1144.23 656.398C1143.93 656.606 1141.01 658.526 1137.7 657.3C1135.58 656.513 1134.49 654.87 1134.16 654.315C1127.87 666.811 1120.49 682.593 1113.08 701.222C1104.96 721.61 1100.51 732.949 1097.39 748.569C1094.87 761.181 1092.74 779 1094.68 800.891C1119.65 790.177 1141.38 779.37 1159.62 769.512C1178.8 759.145 1203.45 744.797 1230.99 725.937C1250.55 712.538 1267.02 699.973 1280.24 689.351C1271.88 673.337 1263.53 657.323 1255.17 641.309C1253.32 637.885 1250.17 632.979 1245.15 628.235C1239.11 622.519 1233.26 619.857 1230.37 618.423C1223.08 614.836 1212.71 608.495 1200.12 596.369L1200.07 596.415Z" fill="#C1A19F"/>
<path d="M1170.52 503.852C1170.47 503.227 1170.43 502.671 1170.38 502.116C1170.77 502.023 1171.35 501.908 1172.07 501.723" stroke="#231F20" stroke-miterlimit="10"/>
<path d="M1175.38 500.611C1179.01 499.13 1183.73 496.33 1187.41 491.1C1193.48 482.445 1195.17 469.208 1189.47 460.785C1182.78 450.904 1166.19 448.011 1152.51 458.031" stroke="#231F20" stroke-miterlimit="10"/>
<path d="M1151.1 459.096C1150.66 459.466 1150.22 459.837 1149.78 460.23C1149.44 459.744 1149.09 459.281 1148.77 458.818" stroke="#231F20" stroke-miterlimit="10"/>
<path d="M1146.84 455.926C1140.55 445.952 1138.51 437.343 1137.91 431.003C1136.69 418.067 1140.39 403.997 1135.85 401.775C1133.91 400.826 1132.36 403.002 1130.23 401.845C1125.32 399.16 1127.94 384.558 1128.12 383.586C1128.98 379.05 1130.23 372.432 1134.88 367.642C1141.22 361.139 1150.64 361.394 1158.53 362.088C1186.9 364.564 1203.73 366.022 1223.98 379.166C1247.81 394.648 1258.3 414.572 1268.97 434.844C1272.02 440.652 1275.14 447.548 1274.98 456.342C1274.87 462.127 1273.39 467.82 1265.19 482.26C1254.41 501.282 1248.99 510.817 1240.45 517.551C1227.22 527.987 1209.54 531.343 1209.54 531.343C1202.46 532.963 1194.47 533.796 1193.57 537.961C1192.69 541.942 1198.94 546.362 1198.2 547.334C1197.55 548.19 1191.99 545.482 1186.93 540.761C1179.54 533.935 1176.28 525.789 1174.66 521.647C1173.92 519.772 1172.32 515.399 1171.28 509.521C1171.03 508.109 1170.84 506.79 1170.7 505.587" stroke="#231F20" stroke-miterlimit="10"/>
<path d="M1253.6 376.598C1254.29 377.014 1254.8 377.361 1255.06 377.523C1255.45 377.176 1255.89 376.806 1256.4 376.436" stroke="#231F20" stroke-miterlimit="10"/>
<path d="M1259.45 374.792C1260.13 374.515 1260.84 374.283 1261.63 374.098C1273.08 371.483 1289.93 382.429 1284.77 395.55" stroke="#231F20" stroke-miterlimit="10"/>
<path d="M1284.03 397.146C1283.78 397.656 1283.48 398.142 1283.15 398.651C1283.68 398.651 1284.26 398.674 1284.89 398.72" stroke="#231F20" stroke-miterlimit="10"/>
<path d="M1288.45 399.184C1290.37 399.554 1292.45 400.156 1294.49 401.127C1305.97 406.566 1309.83 420.335 1305.85 430.586C1304.88 433.109 1303.38 435.214 1301.78 437.205" stroke="#231F20" stroke-miterlimit="10"/>
<path d="M1300.65 438.615C1300.28 439.055 1299.91 439.518 1299.56 439.957C1299.98 440.328 1300.42 440.698 1300.86 441.114" stroke="#231F20" stroke-miterlimit="10"/>
<path d="M1303.01 443.822C1307.5 450.51 1310.55 461.016 1305.51 467.773C1301.06 473.721 1292.8 475.179 1285.91 473.767" stroke="#231F20" stroke-miterlimit="10"/>
<path d="M1284.19 473.327C1283.64 473.165 1283.08 472.98 1282.55 472.795C1283.13 473.003 1283.64 473.258 1284.12 473.559" stroke="#231F20" stroke-miterlimit="10"/>
<path d="M1286.58 475.989C1289.03 479.853 1287.94 485.662 1283.82 488.716C1277.04 493.738 1262.02 483.186 1259.8 481.612C1225.46 457.082 1227.94 402.561 1228.63 386.895C1228.81 382.683 1229.39 376.458 1233.51 373.403C1238.95 369.354 1247.56 373.149 1252.14 375.741" stroke="#231F20" stroke-miterlimit="10"/>
<path d="M1228.63 386.896C1228.81 382.685 1229.39 376.46 1233.51 373.405C1240.69 368.059 1253.37 376.39 1255.08 377.524C1256.49 376.275 1258.64 374.77 1261.65 374.099C1274.01 371.276 1292.62 384.235 1283.17 398.652C1286.11 398.698 1290.37 399.138 1294.54 401.105C1306.02 406.543 1309.88 420.312 1305.9 430.564C1304.47 434.243 1301.92 437.043 1299.58 439.959C1300.37 440.653 1301.23 441.371 1301.9 442.204C1306.97 448.707 1311.04 460.416 1305.55 467.752C1300.37 474.694 1289.93 475.527 1282.6 472.797C1289.45 475.342 1289.47 484.552 1283.85 488.718C1277.07 493.739 1262.05 483.187 1259.82 481.613C1225.48 457.084 1227.96 402.563 1228.65 386.896H1228.63Z" fill="#382A29"/>
<path d="M1109.05 488.879C1108.48 488.995 1107.92 489.087 1107.34 489.203" stroke="#75290E" stroke-miterlimit="10"/>
<path d="M1103.92 489.852L1091.88 492.096" stroke="#75290E" stroke-miterlimit="10"/>
<path d="M1090.15 492.42C1089.57 492.536 1089.01 492.628 1088.43 492.744" stroke="#75290E" stroke-miterlimit="10"/>
<path d="M1263.2 701.455C1263.13 700.876 1263.07 700.298 1262.97 699.742" stroke="#876D51" stroke-miterlimit="10"/>
<path d="M1262.46 696.317C1256.38 657.903 1238.07 632.633 1220.53 632.239C1203.31 631.846 1189.15 655.473 1186.77 659.453C1174.45 679.979 1179.22 694.929 1171.79 729.664C1168.25 746.187 1163.58 759.539 1159.99 768.587" stroke="#876D51" stroke-miterlimit="10"/>
<path d="M1159.34 770.184C1159.11 770.739 1158.9 771.271 1158.69 771.78" stroke="#876D51" stroke-miterlimit="10"/>
<path d="M1200.07 596.416C1199.75 596.74 1199.33 597.133 1198.85 597.619" stroke="#876D51" stroke-miterlimit="10"/>
<path d="M1196.44 600.004C1190.4 606.044 1179.08 617.499 1168 629.81C1161.29 637.261 1152.1 647.443 1149 651.748C1148.95 651.817 1148.49 652.442 1147.77 653.229C1146.82 654.247 1142.24 659.199 1138.72 657.903C1137.54 657.464 1136.73 656.422 1136.2 655.335" stroke="#876D51" stroke-miterlimit="10"/>
<path d="M1135.6 653.736C1135.37 652.926 1135.25 652.255 1135.23 652.047" stroke="#876D51" stroke-miterlimit="10"/>
<path d="M1356.28 214.17C1351.03 216.438 1345.77 218.682 1340.52 220.95Z" fill="#A28D8D"/>
<path d="M1174.66 521.624C1173.92 519.749 1172.32 515.375 1171.28 509.498C1170.77 506.605 1170.52 504.083 1170.38 502.116C1172.81 501.63 1181.47 499.547 1187.39 491.1C1193.45 482.446 1195.14 469.209 1189.45 460.785C1182.32 450.256 1163.88 447.664 1149.76 460.23C1141.13 448.405 1138.61 438.246 1137.91 431.003C1136.69 418.067 1140.39 403.997 1135.85 401.775C1133.91 400.826 1132.36 403.002 1130.23 401.845C1125.32 399.16 1127.94 384.558 1128.12 383.586C1128.98 379.05 1130.23 372.432 1134.88 367.642C1141.22 361.139 1150.64 361.394 1158.53 362.088C1186.9 364.564 1203.73 366.022 1223.98 379.166C1247.81 394.648 1258.3 414.572 1268.97 434.844C1272.02 440.652 1275.14 447.548 1274.98 456.342C1274.87 462.127 1273.39 467.82 1265.19 482.26C1254.41 501.282 1248.99 510.817 1240.45 517.551C1227.22 527.987 1209.54 531.343 1209.54 531.343C1202.46 532.963 1194.47 533.796 1193.57 537.961C1192.69 541.942 1198.94 546.362 1198.2 547.334C1197.55 548.19 1191.99 545.482 1186.93 540.761C1179.54 533.935 1176.28 525.789 1174.66 521.647V521.624Z" fill="#382A29"/>
<path d="M1260.59 389.232C1256.28 394.74 1252 400.248 1247.7 405.778C1255.27 419.386 1262.81 432.969 1270.38 446.576C1277.6 444.008 1284.82 441.439 1292.02 438.847C1292.5 436.117 1294.98 421.144 1285.84 406.866C1276.83 392.819 1263.2 389.765 1260.59 389.232Z" fill="#634762"/>
<path d="M1262.25 390.042C1261.51 389.857 1260.94 389.718 1260.57 389.648C1260.22 390.111 1259.85 390.551 1259.5 391.014" stroke="#974739" stroke-miterlimit="10"/>
<path d="M1257.37 393.791C1254.87 397.008 1252.35 400.224 1249.85 403.441" stroke="#974739" stroke-miterlimit="10"/>
<path d="M1248.76 404.83C1248.42 405.293 1248.05 405.733 1247.7 406.195C1247.98 406.705 1248.25 407.214 1248.53 407.723" stroke="#974739" stroke-miterlimit="10"/>
<path d="M1250.15 410.615C1256.33 421.746 1262.53 432.877 1268.71 444.008" stroke="#974739" stroke-miterlimit="10"/>
<path d="M1269.52 445.467L1270.35 446.994L1272 446.416" stroke="#974739" stroke-miterlimit="10"/>
<path d="M1275.68 445.096C1279.96 443.568 1284.26 442.041 1288.54 440.514" stroke="#974739" stroke-miterlimit="10"/>
<path d="M1290.4 439.865L1292.04 439.287C1292.11 438.916 1292.2 438.338 1292.32 437.574" stroke="#974739" stroke-miterlimit="10"/>
<path d="M1292.62 433.987C1292.94 427.762 1292.27 417.372 1285.84 407.305C1278.94 396.521 1269.31 392.217 1264.01 390.551" stroke="#974739" stroke-miterlimit="10"/>
<path d="M423.121 551.731C420.113 545.205 416.965 538.402 410.231 535.741C398.475 531.112 383.78 542.266 376.721 552.819C364.734 570.823 367.511 597.713 380.331 612.917C382.53 615.508 392.342 627.172 404.029 625.043C412.545 623.492 417.475 615.439 420.761 610.07C431.591 592.367 431.082 568.971 423.098 551.708L423.121 551.731Z" fill="#644534"/>
<path d="M587.708 541.387C566.325 552.98 544.942 564.551 523.535 576.145Z" fill="#61311A"/>
<path d="M587.708 541.387C566.325 552.98 544.942 564.551 523.535 576.145" stroke="#BBA783" stroke-miterlimit="10"/>
<path d="M599.834 592.25C592.73 593.129 585.625 594.009 578.521 594.888" stroke="#75290E" stroke-miterlimit="10"/>
<path d="M755.489 870.709C1190.79 870.709 1543.66 548.938 1543.66 152.012C1543.66 -244.914 1190.79 -566.686 755.489 -566.686C320.192 -566.686 -32.6855 -244.914 -32.6855 152.012C-32.6855 548.938 320.192 870.709 755.489 870.709Z" stroke="#D05D3E" stroke-width="2" stroke-miterlimit="10"/>
<path d="M1169.8 492.744L1166.35 510.054" stroke="white" stroke-miterlimit="10"/>
<path d="M1169.01 513.651C1169.58 511.608 1168.5 509.519 1166.59 508.985C1164.68 508.451 1162.67 509.674 1162.1 511.717C1161.53 513.76 1162.61 515.849 1164.52 516.383C1166.43 516.917 1168.44 515.694 1169.01 513.651Z" stroke="white" stroke-miterlimit="10"/>
</svg>
