<svg width="1512" height="5421" viewBox="0 0 1512 5421" fill="none" xmlns="http://www.w3.org/2000/svg">
<g clip-path="url(#clip0_571_65)">
<path d="M608.424 265.102C611.896 274.794 617.394 286.77 626.342 299.025C645.937 325.96 670.891 338.984 684.312 344.739" fill="white"/>
<path d="M608.424 265.102C611.896 274.794 617.394 286.77 626.342 299.025C645.937 325.96 670.891 338.984 684.312 344.739" stroke="black" stroke-miterlimit="10"/>
<path d="M1351.88 629.061C1327.91 604.2 1300.46 570.253 1251.34 543.622C1219.77 526.497 1200.73 523.375 1168.25 512.704C1088.45 486.492 999.259 457.181 977.38 401.612C946.881 324.118 1063.96 237.981 1030.16 190.496C1016.9 171.88 985.069 171.065 921.39 171.438C875.047 171.717 825.86 172.742 800.207 206.2C794.056 214.215 790.747 222.184 788.906 227.869C718.843 259.183 684.172 252.426 665.439 240.124C656.049 233.95 621.868 207.458 590.972 185.464C587.431 182.947 582.025 179.173 574.01 176.983C556.978 172.346 546.26 179.779 529.716 181.689C509.399 184.043 509.399 174.723 480.716 171.321C468.624 169.9 428.571 165.147 405.317 189.238C398.654 196.135 395.065 203.637 393.062 209.019C389.753 230.735 384.767 262.119 377.987 299.817C358.834 406.132 348.861 459.791 328.987 483.277C292.429 526.497 268.802 493.691 165.63 551.124C92.7239 591.712 39.9493 644.066 22.3811 661.703C4.99923 679.131 -8.5381 694.602 -17.8115 705.693C-17.8115 710.632 -17.8115 823.471 -17.8115 941.226C-17.695 2434.02 -15.1786 3926.88 -10.3089 5419.81H1510.84C1510 3879.61 1509.16 2339.38 1508.32 799.17C1447.79 730.227 1394.5 673.237 1351.86 629.038L1351.88 629.061Z" fill="#EEE3E9" stroke="#3A212F" stroke-miterlimit="10"/>
<path d="M789.442 226.33C781.683 238.422 774.437 247.812 769.125 254.266C750.625 276.797 737.763 292.034 717.282 297.137C707.123 299.677 698.246 298.931 692.771 298.069" fill="#F1DFE9"/>
<path d="M789.442 226.33C781.683 238.422 774.437 247.812 769.125 254.266C750.625 276.797 737.763 292.034 717.282 297.137C707.123 299.677 698.246 298.931 692.771 298.069" stroke="#3A212F" stroke-miterlimit="10"/>
<path d="M538.664 40.7976C546.05 41.9625 550.803 57.7362 552.807 64.3533C556.256 75.8166 555.044 81.7579 559.867 85.5557C564.807 89.4467 572.333 88.1419 577.785 86.4877C575.432 90.8913 573.078 95.2949 570.725 99.6751C571.005 104.219 571.308 108.785 571.587 113.329C566.554 113.049 552.737 112.49 552.108 115.472C551.386 118.804 567.58 124.838 571.61 126.306C572.962 143.501 569.141 149.303 565.529 151.516C561.615 153.893 557.537 152.169 544.792 151.982C537.429 151.866 531.371 152.169 527.364 152.448C526.735 156.246 525.966 160.184 525.01 164.238C521.259 180.198 515.714 193.898 509.935 205.245C506.37 207.085 496.957 211.256 484.958 209.485C466.737 206.782 457.23 192.5 455.739 190.17C460.982 184.089 468.484 173.884 473.657 159.531C476.197 152.495 479.901 142.197 479.319 129.382C478.2 105.337 463.219 98.6267 467.529 87.909C472.585 75.3506 493.579 83.4821 514.642 65.7512C528.995 53.6821 531.441 39.6326 538.664 40.7743V40.7976Z" fill="#CE9265" stroke="#35160C" stroke-miterlimit="10"/>
<path d="M440.174 165.684C431.576 169.808 422.792 173.885 413.775 177.939C408.393 180.362 403.057 182.715 397.745 184.999C396.882 189.356 395.228 195.623 391.617 202.427C384.161 216.523 375.167 220.251 374.654 231.178C374.584 232.879 374.258 239.892 378.429 242.968C386.141 248.629 407.298 239.286 413.775 224.584C416.711 217.921 414.87 214.146 418.948 208.088C423.584 201.192 431.25 198.21 436.865 196.788C438.38 194.785 439.428 192.804 438.753 191.616C436.982 188.517 425.215 193.363 424.143 191.15C423.91 190.684 423.817 189.216 437.821 177.007C442.853 172.627 446.022 170.064 445.37 168.06C444.857 166.499 442.294 165.94 440.197 165.707L440.174 165.684Z" fill="#CE9265" stroke="#35160C" stroke-miterlimit="10"/>
<path d="M538.663 40.332C537.405 40.8446 540.294 47.2752 540.085 57.294C539.968 62.2102 539.665 76.6791 529.25 86.0454C526.944 88.1191 521.561 92.2664 512.288 93.5944C511.892 92.4528 509.562 86.1386 502.875 83.2262C496.607 80.5002 489.733 82.201 485.446 85.5794C477.757 91.614 477.734 103.31 481.206 111.022C485.003 119.457 493.857 124.932 503.83 125.165C504.482 126.26 505.368 128.054 505.717 130.338C507.348 140.962 496.118 151.61 486.867 156.247C484.211 157.575 475.707 161.838 466.13 160.021C445.789 156.13 436.702 127.868 432.206 113.842C425.705 93.5944 417.876 69.2233 431.74 47.3917C444.298 27.6106 466.759 22.3449 473.68 20.9935C474.751 18.2209 476.802 14.0037 480.74 10.1593C489.524 1.60843 504.319 -1.74668 516.552 4.03157C525.872 8.43515 530.182 16.4967 531.627 19.5723C534.097 18.4306 537.964 17.1258 542.461 17.685C553.552 19.083 562.127 31.1055 562.732 42.662C563.338 54.4981 555.439 62.6994 553.785 64.3304C543.44 44.3395 539.828 39.8427 538.71 40.3087L538.663 40.332Z" fill="#644534" stroke="#3F2919" stroke-miterlimit="10"/>
<path d="M462.333 23.8352C461.028 21.3655 458.861 17.3114 456.205 14.4223C445.091 2.35321 414.405 -1.1184 403.896 15.3543C395.322 28.8213 404.782 46.9016 405.318 47.8802C402.056 48.6258 394.413 50.8392 388.821 57.7825C381.109 67.3585 379.198 83.7613 387.889 92.1724C392.526 96.6692 398.7 97.4846 402.032 97.6011C401.729 100.141 401.823 103.356 403.43 106.292C408.207 115.076 423.538 116.544 433.115 114.307C460.073 108.016 472.305 65.2849 469.393 45.5037C467.692 33.9472 462.333 23.8352 462.333 23.8352Z" fill="#644534" stroke="#3F2919" stroke-miterlimit="10"/>
<path d="M597.1 204.313C591.531 199.513 585.077 198.115 575.897 188.283C570.818 182.854 567.509 177.635 565.529 174.14C562.546 175.049 557.071 176.237 550.453 175.072C540.481 173.348 534.237 167.43 532.07 165.17C529.996 168.642 529.973 171.251 530.182 172.719C531.184 179.942 541.157 186.302 555.16 186.862C556.651 188.027 566.367 195.692 564.573 199.583C563.618 201.68 559.727 201.843 557.513 201.936C547.308 202.379 542.974 195.809 534.889 197.696C534.143 197.882 530.322 198.838 530.182 200.515C529.996 202.659 535.868 203.73 541.972 207.109C552.877 213.143 552.48 219.854 561.754 225.026C565.179 226.937 570.748 229.08 579.182 228.801C584.448 256.364 583.05 277.636 580.604 292.408C578.716 303.685 575.338 316.476 581.536 330.106C585.543 338.913 594.141 349.328 601.317 348.024C608.937 346.626 614.762 332.133 614.039 312.212C610.801 292.571 609.216 276.401 608.377 265.101C605.675 228.847 608.401 214.075 597.077 204.313H597.1Z" fill="#CE9265" stroke="#35160C" stroke-miterlimit="10"/>
<path d="M448.189 190.659C445.487 193.548 444.415 197.019 443.949 199.606C435.444 200.631 425.053 202.751 413.799 207.155C389.636 216.544 373.816 231.526 365.265 241.079C362.212 249.956 359.23 258.903 356.317 267.943C330.035 349.164 311.605 428.336 299.209 504.338C317.663 499.516 342.361 493.015 371.882 485.116C398.63 477.964 415.267 473.397 437.471 465.615C448.912 461.607 458.232 457.996 464.523 455.48C477.897 446.137 491.248 436.77 504.622 427.427C502.735 400.47 509.445 388.634 516.575 382.925C523.402 377.45 532.279 376.285 536.357 367.688C539.502 361.07 538.081 353.731 536.357 348.535C544.209 365.544 552.061 382.553 559.913 399.538C563.222 398.326 567.952 396.532 573.521 394.016C579.509 391.336 585.66 388.214 588.176 386.7C591.462 384.719 601.97 377.31 607.329 352.822C591.205 310.557 575.082 268.269 558.958 226.004C556.675 223.324 552.83 219.573 547.168 217.057C533.91 211.139 520.303 216.381 517.763 211.069C517.321 210.16 517.041 208.553 518.416 205.757C518.09 205.034 517.554 203.939 516.762 202.705C509.655 191.521 495.069 189.377 480.25 187.397C464.616 185.3 454.387 184.088 448.213 190.705L448.189 190.659Z" fill="#869CBF" stroke="#3F1527" stroke-miterlimit="10"/>
<path d="M505.834 100.026C505.252 96.0416 502.712 92.733 499.24 91.5448C494.557 89.9604 488.802 92.4768 486.355 97.8356" fill="#CE9265"/>
<path d="M505.834 100.026C505.252 96.0416 502.712 92.733 499.24 91.5448C494.557 89.9604 488.802 92.4768 486.355 97.8356" stroke="#35160C" stroke-miterlimit="10"/>
<path d="M905.873 40.7976C897.601 45.8535 892.335 62.4427 891.73 64.3533C888.468 74.9079 889.749 81.5482 884.67 85.5557C879.73 89.4467 872.204 88.1419 866.752 86.4877C869.105 90.8913 871.459 95.2948 873.812 99.6751C873.532 104.219 873.229 108.785 872.95 113.329C872.95 117.662 872.95 121.973 872.926 126.306C871.575 143.501 875.396 149.303 879.008 151.516C882.922 153.893 887 152.169 899.745 151.982C907.108 151.866 913.166 152.169 917.173 152.448C917.802 156.246 918.571 160.184 919.527 164.238C923.278 180.198 928.823 193.898 934.602 205.245C938.167 207.085 947.58 211.256 959.579 209.485C977.8 206.782 987.306 192.5 988.798 190.17C983.206 182.574 976.658 172.346 970.88 159.531C964.333 144.992 960.884 137.35 962.282 127.961C964.635 112.21 977.823 110.463 980.2 98.7432C985.652 71.7159 926.051 28.4722 905.849 40.7743L905.873 40.7976Z" fill="#FDC6B4" stroke="#4F2726" stroke-miterlimit="10"/>
<path d="M1004.36 165.684C1012.96 169.808 1021.74 173.885 1030.76 177.939C1036.14 180.362 1041.48 182.715 1046.79 184.999C1047.65 189.356 1049.31 195.623 1052.92 202.427C1060.38 216.523 1069.37 220.251 1069.88 231.178C1069.95 232.879 1070.28 239.892 1066.11 242.968C1058.39 248.629 1037.24 239.286 1030.76 224.584C1027.82 217.921 1029.67 214.146 1025.59 208.088C1020.95 201.192 1013.29 198.21 1007.67 196.788C1006.16 194.785 1005.11 192.804 1005.78 191.616C1007.55 188.517 1019.32 193.363 1020.39 191.15C1020.63 190.684 1020.72 189.216 1006.72 177.007C1001.68 172.627 998.513 170.064 999.166 168.06C999.678 166.499 1002.24 165.94 1004.34 165.707L1004.36 165.684Z" fill="#FDC6B4" stroke="#4F2726" stroke-miterlimit="10"/>
<path d="M905.873 40.3319C907.131 40.8445 904.242 47.2751 904.451 57.2938C904.568 62.21 904.871 76.6789 915.286 86.0453C917.593 88.1189 922.975 92.2662 932.248 93.5943C932.644 92.4526 934.974 86.1385 941.662 83.2261C947.929 80.5 954.803 82.2009 959.09 85.5793C966.779 91.6139 966.802 103.31 963.331 111.022C959.533 119.457 950.679 124.932 940.706 125.165C939.401 127.705 937.677 132.038 938.4 137.094C940.031 148.418 952.613 154.01 957.669 156.246C966.383 160.114 983.928 164.611 991.174 156.549C996.067 151.12 991.384 145.435 993.061 133.296C995.997 111.978 1013.1 109.997 1019.09 89.1441C1025.08 68.2213 1013.89 49.1624 1012.82 47.3683C999.446 25.3271 974.631 21.506 970.88 20.9701C969.808 18.1975 967.758 13.9803 963.82 10.1359C955.036 1.58499 940.24 -1.77012 928.008 4.00813C918.688 8.41172 914.377 16.4733 912.933 19.5488C910.463 18.4072 906.595 17.1024 902.098 17.6616C891.007 19.0595 882.433 31.082 881.827 42.6385C881.221 54.4746 889.12 62.676 890.774 64.307C901.119 44.3161 904.731 39.8193 905.849 40.2853L905.873 40.3319Z" fill="#965F39" stroke="#3A2619" stroke-miterlimit="10"/>
<path d="M847.436 204.313C853.005 199.513 859.459 198.115 868.639 188.283C873.719 182.854 877.027 177.635 879.008 174.14C881.99 175.049 887.466 176.237 894.083 175.072C904.055 173.348 910.3 167.43 912.467 165.17C914.54 168.642 914.564 171.251 914.354 172.719C913.352 179.942 903.38 186.302 889.376 186.862C887.885 188.027 878.169 195.692 879.963 199.583C880.918 201.68 884.81 201.843 887.023 201.936C897.228 202.379 901.562 195.809 909.647 197.696C910.393 197.882 914.214 198.838 914.354 200.515C914.54 202.659 908.669 203.73 902.564 207.109C891.66 213.143 892.056 219.854 882.782 225.026C879.357 226.937 873.789 229.08 865.354 228.801C860.088 256.364 861.486 277.636 863.933 292.408C865.82 303.685 869.199 316.476 863.001 330.106C858.993 338.913 850.395 349.328 843.219 348.024C835.6 346.626 829.775 332.133 830.497 312.212C833.736 292.571 835.32 276.401 836.159 265.101C838.862 228.847 836.136 214.075 847.46 204.313H847.436Z" fill="#FDC6B4" stroke="#4F2726" stroke-miterlimit="10"/>
<path d="M996.347 190.659C999.05 193.548 1000.12 197.019 1000.59 199.606C1009.09 200.631 1019.48 202.751 1030.74 207.155C1054.9 216.544 1070.72 231.526 1079.27 241.079C1082.32 249.932 1085.31 258.879 1088.22 267.943C1114.53 349.794 1131.07 429.268 1140.62 504.735C1110.38 495.415 1085.56 488.518 1068.55 483.975C1028.38 473.21 1014.36 470.787 993.388 461.305C967.222 449.468 948.279 434.79 936.489 424.398C936.116 414.426 934.416 399.608 928.008 382.925C922.067 367.478 914.238 356.015 908.226 348.535C901.935 366.22 895.644 383.881 889.353 401.565C884.39 399.701 877.983 397.161 870.527 393.923C860.135 389.403 858.061 388.005 856.384 386.7C850 381.69 846.877 375.749 843.685 369.668C841.681 365.87 839.212 360.372 837.324 353.312C853.425 310.884 869.502 268.432 885.602 226.004C887.885 223.324 891.73 219.573 897.392 217.057C910.649 211.139 924.257 216.381 926.796 211.069C927.239 210.16 927.519 208.553 926.144 205.757C926.47 205.034 927.006 203.939 927.798 202.705C934.905 191.521 949.491 189.377 964.31 187.397C979.944 185.3 990.173 184.088 996.347 190.705V190.659Z" fill="#C6B085" stroke="#4C2C14" stroke-miterlimit="10"/>
<path d="M938.702 100.026C939.285 96.0416 941.824 92.733 945.296 91.5448C949.979 89.9604 955.735 92.4768 958.181 97.8356" fill="#FDC6B4"/>
<path d="M938.702 100.026C939.285 96.0416 941.824 92.733 945.296 91.5448C949.979 89.9604 955.735 92.4768 958.181 97.8356" stroke="#4F2726" stroke-miterlimit="10"/>
<path d="M516.762 301.773C523.892 318.316 530.998 334.859 538.128 351.401L516.762 301.773Z" fill="#869CBF"/>
<path d="M516.762 301.773C523.892 318.316 530.998 334.859 538.128 351.401" stroke="#3F1527" stroke-miterlimit="10"/>
<path d="M930.57 298.908C923.44 315.451 916.334 331.993 909.204 348.536L930.57 298.908Z" fill="#C6B085"/>
<path d="M930.57 298.908C923.44 315.451 916.334 331.993 909.204 348.536" stroke="#4C2C14" stroke-miterlimit="10"/>
<path d="M895.713 116.684C893.71 117.872 890.378 119.503 885.974 120.132C882.945 120.575 880.335 120.411 878.425 120.132" fill="#FDC6B4"/>
<path d="M895.713 116.684C893.71 117.872 890.378 119.503 885.974 120.132C882.945 120.575 880.335 120.411 878.425 120.132" stroke="#4F2726" stroke-miterlimit="10"/>
<path d="M614.063 318.34C613.573 326.401 612.175 337.818 607.935 350.866C604.323 361.98 600.549 373.606 591.462 383.368C583.656 391.71 579.206 390.894 551.386 403.173C536.963 409.534 521.515 416.43 504.576 427.404C491.901 435.629 488.615 439.497 479.784 445.857C457.37 462.027 436.074 467.642 413.822 473.63C377.055 483.533 326.167 497.535 263.63 513.542" stroke="#3A212F" stroke-miterlimit="10"/>
<path d="M830.427 318.34C830.916 326.401 832.314 337.818 836.555 350.866C840.166 361.98 843.941 373.606 853.028 383.368C860.833 391.71 865.284 390.894 893.104 403.173C907.527 409.534 922.975 416.43 939.914 427.404C952.589 435.629 955.874 439.497 964.705 445.857C988.238 462.819 1011.14 468.574 1030.67 473.63C1066.57 482.903 1115.18 497.512 1175.85 514.87" stroke="#3A212F" stroke-miterlimit="10"/>
</g>
<defs>
<clipPath id="clip0_571_65">
<rect width="1531" height="5421" fill="white" transform="translate(-19)"/>
</clipPath>
</defs>
</svg>
