<svg width="64" height="64" viewBox="0 0 64 64" fill="none" xmlns="http://www.w3.org/2000/svg">
<g clip-path="url(#clip0_645_98)">
<path d="M64 32.1943C64 48.165 52.2827 61.405 36.9867 63.8077V41.5063H44.424L45.84 32.2797H36.9867V26.293C36.9867 23.7677 38.224 21.309 42.1867 21.309H46.2107V13.453C46.2107 13.453 42.5573 12.829 39.0667 12.829C31.776 12.829 27.0133 17.2477 27.0133 25.245V32.277H18.9093V41.5037H27.0133V63.805C11.72 61.3997 0 48.1623 0 32.1943C0 14.5223 14.328 0.194336 32 0.194336C49.672 0.194336 64 14.5197 64 32.1943Z" fill="white"/>
</g>
<defs>
<clipPath id="clip0_645_98">
<rect width="64" height="64" fill="white"/>
</clipPath>
</defs>
</svg>
