<svg width="64" height="61" viewBox="0 0 64 61" fill="none" xmlns="http://www.w3.org/2000/svg">
<path d="M32 5.47992C40.544 5.47992 41.5573 5.51034 44.9307 5.65735C48.4187 5.80943 52.0107 6.56475 54.552 8.98028C57.1173 11.4186 57.888 14.7998 58.048 18.1253C58.2027 21.3316 58.2347 22.2948 58.2347 30.4158C58.2347 38.5369 58.2027 39.5 58.048 42.7064C57.8907 46.004 57.0773 49.4511 54.552 51.8514C51.9867 54.2897 48.432 55.0223 44.9307 55.1743C41.5573 55.3213 40.544 55.3518 32 55.3518C23.456 55.3518 22.4427 55.3213 19.0693 55.1743C15.6267 55.0248 11.952 54.234 9.448 51.8514C6.896 49.4257 6.112 46.0116 5.952 42.7064C5.79733 39.5 5.76533 38.5369 5.76533 30.4158C5.76533 22.2948 5.79733 21.3316 5.952 18.1253C6.10933 14.8404 6.93067 11.373 9.448 8.98028C12.008 6.54701 15.5787 5.80943 19.0693 5.65735C22.4427 5.51034 23.456 5.47992 32 5.47992ZM32 0C23.3093 0 22.2187 0.0354851 18.8053 0.182495C13.8587 0.397941 8.94667 1.70582 5.37067 5.10479C1.78133 8.51644 0.418667 13.1751 0.192 17.8744C0.0373333 21.1187 0 22.1554 0 30.4158C0 38.6763 0.0373333 39.713 0.192 42.9573C0.418667 47.654 1.8 52.3355 5.37067 55.7269C8.95733 59.136 13.8667 60.4337 18.8053 60.6492C22.2187 60.7962 23.3093 60.8317 32 60.8317C40.6907 60.8317 41.7813 60.7962 45.1947 60.6492C50.1387 60.4337 55.056 59.1233 58.6293 55.7269C62.2213 52.3127 63.5813 47.6566 63.808 42.9573C63.9627 39.713 64 38.6763 64 30.4158C64 22.1554 63.9627 21.1187 63.808 17.8744C63.5813 13.1726 62.2027 8.50123 58.6293 5.10479C55.048 1.70075 50.1253 0.395406 45.1947 0.182495C41.7813 0.0354851 40.6907 0 32 0Z" fill="white"/>
<path d="M32.0004 14.7979C22.9257 14.7979 15.5684 21.791 15.5684 30.4164C15.5684 39.0418 22.9257 46.0349 32.0004 46.0349C41.075 46.0349 48.4324 39.0418 48.4324 30.4164C48.4324 21.791 41.075 14.7979 32.0004 14.7979ZM32.0004 40.555C26.1097 40.555 21.3337 36.0154 21.3337 30.4164C21.3337 24.8173 26.1097 20.2778 32.0004 20.2778C37.891 20.2778 42.667 24.8173 42.667 30.4164C42.667 36.0154 37.891 40.555 32.0004 40.555Z" fill="white"/>
<path d="M49.0822 17.8291C51.203 17.8291 52.9222 16.195 52.9222 14.1792C52.9222 12.1634 51.203 10.5293 49.0822 10.5293C46.9614 10.5293 45.2422 12.1634 45.2422 14.1792C45.2422 16.195 46.9614 17.8291 49.0822 17.8291Z" fill="white"/>
</svg>
