<svg width="69" height="69" viewBox="0 0 69 69" fill="none" xmlns="http://www.w3.org/2000/svg">
<g clip-path="url(#clip0_645_93)">
<path d="M66.1304 62.054H66.783L65.5324 60.1623C66.2972 60.1623 66.7025 59.6764 66.7083 59.0813C66.7083 59.0583 66.7083 59.0324 66.7054 59.0094C66.7054 58.1987 66.2167 57.8105 65.2133 57.8105H63.5918V62.054H64.2013V60.2054H64.9517L66.1304 62.054ZM64.9085 59.7253H64.2013V58.2907H65.0983C65.5612 58.2907 66.0902 58.3654 66.0902 58.972C66.0902 59.6678 65.5583 59.7253 64.9085 59.7253Z" fill="white"/>
<path d="M49.7116 54.8351H41.0665V41.2967C41.0665 38.0681 41.009 33.9137 36.57 33.9137C32.0678 33.9137 31.3778 37.4298 31.3778 41.0638V54.8351H22.7355V26.9936H31.0356V30.7972H31.1506C32.844 27.9049 35.9893 26.1771 39.3386 26.3007C48.1016 26.3007 49.7145 32.0651 49.7145 39.5602L49.7116 54.8351ZM12.9806 23.1871C10.2091 23.1871 7.96375 20.9417 7.96375 18.1702C7.96375 15.3987 10.2091 13.1533 12.9806 13.1533C15.7521 13.1533 17.9975 15.3987 17.9975 18.1702C17.9975 20.9417 15.7521 23.1871 12.9806 23.1871ZM17.3018 54.8351H8.648V26.9936H17.3018V54.8351ZM54.0213 5.12631H4.30388C1.955 5.10044 0.02875 6.98356 0 9.33244V59.2539C0.02875 61.6057 1.955 63.4888 4.30388 63.4629H54.0213C56.3759 63.4917 58.3108 61.6086 58.3424 59.2539V9.32956C58.3079 6.97494 56.373 5.09181 54.0213 5.12344" fill="white"/>
<path d="M64.9839 55.9219C62.7874 55.942 61.0221 57.7417 61.0451 59.9382C61.0653 62.1347 62.865 63.9 65.0615 63.877C67.258 63.8569 69.0233 62.0571 69.0003 59.8606C68.9801 57.6929 67.2264 55.942 65.0615 55.9219H64.9839ZM65.0759 63.4199C63.1496 63.4515 61.4706 61.9191 61.439 59.9929C61.4074 58.0666 62.9426 56.4796 64.8689 56.448C66.7951 56.4164 68.3821 57.9516 68.4138 59.8779C68.4138 59.898 68.4138 59.9152 68.4138 59.9354C68.454 61.8185 66.959 63.3796 65.0759 63.4199H64.9868H65.0759Z" fill="white"/>
</g>
<defs>
<clipPath id="clip0_645_93">
<rect width="69" height="69" fill="white"/>
</clipPath>
</defs>
</svg>
