<svg width="162" height="186" viewBox="0 0 162 186" fill="none" xmlns="http://www.w3.org/2000/svg">
<g clip-path="url(#clip0_608_57)">
<path d="M77.9144 82.4788C78.8728 81.6824 80.7023 80.0751 80.6878 77.932C80.6878 74.5146 75.9833 71.9082 73.4423 70.7063C73.5875 66.1884 73.5875 59.3103 72.6437 50.9551C71.9031 44.5114 71.0174 42.4841 71.0174 40.1673C71.0174 20.0685 87.3525 3.76367 107.521 3.76367C127.689 3.76367 144.024 20.0541 144.024 40.1673C144.024 54.1118 136.154 66.2174 124.611 72.3281C124.364 74.3409 124.393 76.1509 125.802 77.4831C127.515 79.0904 130.172 78.7863 132.553 78.656C132.553 78.656 136.938 78.4098 146.362 80.2778C146.58 80.3212 146.681 80.3357 146.812 80.3647C153.578 81.8851 157.034 89.5307 158.138 91.9779C158.791 93.426 162.465 101.882 159.314 111.309C157.354 117.174 153.68 120.649 152.562 121.851C147.03 127.817 144.242 143.007 158.051 184.522C125.482 184.464 92.9282 184.391 60.3597 184.334C60.955 178.411 61.3471 171.953 61.4052 165.046C61.4778 156.705 61.0567 149.016 60.3597 142.08C55.2632 143.933 28.6915 153.36 12.8502 149.581C10.2801 148.973 5.79344 147.829 3.09271 143.847C2.48287 142.949 0.479106 139.502 2.14891 131.466C4.76252 118.882 14.0408 106.502 18.6727 107.979C21.3299 108.833 19.6455 113.336 22.7819 115.986C30.2887 122.343 50.4861 105.372 77.958 82.4643L77.9144 82.4788Z" stroke="white" stroke-width="2" stroke-miterlimit="10"/>
<path d="M146.072 67.4197C141.353 65.8558 137.142 67.2749 131.421 69.3166C117.322 74.3268 103.644 79.6122 90.9536 80.1479C88.4707 80.2493 84.9714 80.1479 82.7353 77.8021C80.2523 75.2101 81.1235 71.6914 81.6463 68.1148C91.4182 61.5841 97.8506 50.4777 97.8506 37.8508C97.8506 17.7521 81.5156 1.44727 61.3473 1.44727C41.1789 1.44727 24.8439 17.7376 24.8439 37.8508C24.8439 51.7954 32.7138 63.901 44.2572 70.0117C44.504 72.0245 44.475 73.8345 43.0665 75.1667C41.3532 76.774 38.696 76.4699 36.3147 76.3396C36.3147 76.3396 31.9297 76.0934 22.5062 77.9614C20.5605 78.3524 8.1749 80.7851 5.18377 89.676C3.58657 94.4255 5.03857 99.9136 7.53602 103.447C10.3965 107.487 13.3876 107.168 15.7544 110.774C17.5113 113.453 18.5567 117.71 16.5384 124.834C22.5062 126.224 26.6879 131.437 26.6879 137.143C26.6879 144.064 21.0542 149.683 14.1136 149.683C13.6635 149.683 13.2279 149.654 12.7923 149.61C11.3693 160.195 9.97538 171.852 8.69762 184.406C41.7162 184.218 74.7202 184.03 107.739 183.842C107.477 177.137 107.376 170.085 107.492 162.715C107.623 154.664 107.986 147.004 108.537 139.749C103.528 141.545 98.5185 143.355 93.5237 145.15C87.3236 147.786 80.1943 144.672 77.9582 138.706C75.8673 133.132 78.6406 126.557 84.4196 124.067C95.5564 119.274 101.277 114.365 126.876 106.242C146.144 100.131 151.967 97.2347 154.885 91.153C155.669 89.5022 158.457 83.0585 155.553 76.3396C155.306 75.7604 152.519 69.5773 146.072 67.4342V67.4197Z" fill="white" stroke="white" stroke-width="2" stroke-miterlimit="10"/>
<path d="M25.7727 93.2727C25.7045 92.697 25.428 92.25 24.9432 91.9318C24.4583 91.6136 23.8636 91.4545 23.1591 91.4545C22.6439 91.4545 22.1932 91.5379 21.8068 91.7045C21.4242 91.8712 21.125 92.1004 20.9091 92.392C20.697 92.6837 20.5909 93.0152 20.5909 93.3864C20.5909 93.697 20.6648 93.964 20.8125 94.1875C20.964 94.4072 21.1572 94.5909 21.392 94.7386C21.6269 94.8826 21.8731 95.0019 22.1307 95.0966C22.3883 95.1875 22.625 95.2614 22.8409 95.3182L24.0227 95.6364C24.3258 95.7159 24.6629 95.8258 25.0341 95.9659C25.4091 96.1061 25.767 96.2973 26.108 96.5398C26.4527 96.7784 26.7367 97.0852 26.9602 97.4602C27.1837 97.8352 27.2955 98.2955 27.2955 98.8409C27.2955 99.4697 27.1307 100.038 26.8011 100.545C26.4754 101.053 25.9981 101.456 25.3693 101.756C24.7443 102.055 23.9848 102.205 23.0909 102.205C22.2576 102.205 21.536 102.07 20.9261 101.801C20.3201 101.532 19.8428 101.157 19.4943 100.676C19.1496 100.195 18.9545 99.6364 18.9091 99H20.3636C20.4015 99.4394 20.5492 99.803 20.8068 100.091C21.0682 100.375 21.3977 100.587 21.7955 100.727C22.197 100.864 22.6288 100.932 23.0909 100.932C23.6288 100.932 24.1117 100.845 24.5398 100.67C24.9678 100.492 25.3068 100.246 25.5568 99.9318C25.8068 99.6136 25.9318 99.2424 25.9318 98.8182C25.9318 98.4318 25.8239 98.1174 25.608 97.875C25.392 97.6326 25.108 97.4356 24.7557 97.2841C24.4034 97.1326 24.0227 97 23.6136 96.8864L22.1818 96.4773C21.2727 96.2159 20.553 95.8428 20.0227 95.358C19.4924 94.8731 19.2273 94.2386 19.2273 93.4545C19.2273 92.803 19.4034 92.2348 19.7557 91.75C20.1117 91.2614 20.589 90.8826 21.1875 90.6136C21.7898 90.3409 22.4621 90.2045 23.2045 90.2045C23.9545 90.2045 24.6212 90.339 25.2045 90.608C25.7879 90.8731 26.25 91.2367 26.5909 91.6989C26.9356 92.161 27.1174 92.6856 27.1364 93.2727H25.7727ZM30.0895 102H28.6122L32.8849 90.3636H34.3395L38.6122 102H37.1349L33.6577 92.2045H33.5668L30.0895 102ZM30.6349 97.4545H36.5895V98.7045H30.6349V97.4545ZM40.4247 90.3636H42.1065L46.0611 100.023H46.1974L50.152 90.3636H51.8338V102H50.5156V93.1591H50.402L46.7656 102H45.4929L41.8565 93.1591H41.7429V102H40.4247V90.3636ZM55.1364 102H53.6591L57.9318 90.3636H59.3864L63.6591 102H62.1818L58.7045 92.2045H58.6136L55.1364 102ZM55.6818 97.4545H61.6364V98.7045H55.6818V97.4545ZM65.4716 102V90.3636H69.4034C70.3125 90.3636 71.0587 90.5189 71.642 90.8295C72.2254 91.1364 72.6572 91.5587 72.9375 92.0966C73.2178 92.6345 73.358 93.2462 73.358 93.9318C73.358 94.6174 73.2178 95.2254 72.9375 95.7557C72.6572 96.286 72.2273 96.7027 71.6477 97.0057C71.0682 97.3049 70.3277 97.4545 69.4261 97.4545H66.2443V96.1818H69.3807C70.0019 96.1818 70.5019 96.0909 70.8807 95.9091C71.2633 95.7273 71.5398 95.4697 71.7102 95.1364C71.8845 94.7992 71.9716 94.3977 71.9716 93.9318C71.9716 93.4659 71.8845 93.0587 71.7102 92.7102C71.536 92.3617 71.2576 92.0928 70.875 91.9034C70.4924 91.7102 69.9867 91.6136 69.358 91.6136H66.8807V102H65.4716ZM70.9489 96.7727L73.8125 102H72.1761L69.358 96.7727H70.9489ZM75.706 102V90.3636H79.7741C80.5848 90.3636 81.2533 90.5038 81.7798 90.7841C82.3063 91.0606 82.6984 91.4337 82.956 91.9034C83.2135 92.3693 83.3423 92.8864 83.3423 93.4545C83.3423 93.9545 83.2533 94.3674 83.0753 94.6932C82.901 95.0189 82.67 95.2765 82.3821 95.4659C82.098 95.6553 81.7893 95.7955 81.456 95.8864V96C81.812 96.0227 82.17 96.1477 82.5298 96.375C82.8897 96.6023 83.1908 96.928 83.4332 97.3523C83.6757 97.7765 83.7969 98.2955 83.7969 98.9091C83.7969 99.4924 83.6643 100.017 83.3991 100.483C83.134 100.949 82.7154 101.318 82.1435 101.591C81.5715 101.864 80.8272 102 79.9105 102H75.706ZM77.1151 100.75H79.9105C80.831 100.75 81.4844 100.572 81.8707 100.216C82.2609 99.8561 82.456 99.4205 82.456 98.9091C82.456 98.5152 82.3556 98.1515 82.1548 97.8182C81.9541 97.4811 81.6681 97.2121 81.2969 97.0114C80.9257 96.8068 80.4863 96.7045 79.9787 96.7045H77.1151V100.75ZM77.1151 95.4773H79.7287C80.1529 95.4773 80.5355 95.3939 80.8764 95.2273C81.2211 95.0606 81.4938 94.8258 81.6946 94.5227C81.8991 94.2197 82.0014 93.8636 82.0014 93.4545C82.0014 92.9432 81.8234 92.5095 81.4673 92.1534C81.1113 91.7936 80.5469 91.6136 79.7741 91.6136H77.1151V95.4773ZM86.1122 102V90.3636H93.1349V91.6136H87.5213V95.5455H92.7713V96.7955H87.5213V100.75H93.2259V102H86.1122ZM100.129 90.3636H101.538V98.6818C101.538 99.4242 101.402 100.055 101.129 100.574C100.857 101.093 100.472 101.487 99.9759 101.756C99.4796 102.025 98.8944 102.159 98.2202 102.159C97.5838 102.159 97.0175 102.044 96.5213 101.812C96.0251 101.578 95.6349 101.244 95.3509 100.812C95.0668 100.381 94.9247 99.8674 94.9247 99.2727H96.3111C96.3111 99.6023 96.3925 99.8902 96.5554 100.136C96.7221 100.379 96.9493 100.568 97.2372 100.705C97.5251 100.841 97.8527 100.909 98.2202 100.909C98.6255 100.909 98.9702 100.824 99.2543 100.653C99.5384 100.483 99.7543 100.233 99.902 99.9034C100.054 99.5701 100.129 99.1629 100.129 98.6818V90.3636ZM107.953 102H104.362V90.3636H108.112C109.241 90.3636 110.207 90.5966 111.01 91.0625C111.813 91.5246 112.429 92.1894 112.857 93.0568C113.285 93.9205 113.499 94.9545 113.499 96.1591C113.499 97.3712 113.283 98.4148 112.851 99.2898C112.419 100.161 111.79 100.831 110.964 101.301C110.139 101.767 109.135 102 107.953 102ZM105.771 100.75H107.862C108.824 100.75 109.622 100.564 110.254 100.193C110.887 99.822 111.358 99.2936 111.669 98.608C111.98 97.9223 112.135 97.1061 112.135 96.1591C112.135 95.2197 111.982 94.411 111.675 93.733C111.368 93.0511 110.91 92.5284 110.3 92.1648C109.69 91.7973 108.93 91.6136 108.021 91.6136H105.771V100.75Z" fill="#263238"/>
</g>
<defs>
<clipPath id="clip0_608_57">
<rect width="162" height="186" fill="white"/>
</clipPath>
</defs>
</svg>
