<svg width="185" height="162" viewBox="0 0 185 162" fill="none" xmlns="http://www.w3.org/2000/svg">
<g clip-path="url(#clip0_608_62)">
<path d="M171.952 16.2322C155.487 -0.752923 128.561 -2.72384 109.7 11.7616L93.3785 27.4969C88.1882 22.2892 83.0138 17.0975 77.8234 11.8898C59.0743 -3.14046 31.797 -1.50604 15.0442 15.5272C-1.54898 32.3842 -2.97034 59.4483 11.8501 78.0679C19.0208 89.2684 28.0759 101.687 39.4468 114.378C57.4453 134.455 75.7473 149.085 91.0628 159.5C91.1586 159.42 91.478 159.1 91.5579 159.02C91.7176 158.86 91.8933 158.699 92.053 158.539L93.4743 159.965C109.972 149.63 130.382 134.263 149.945 111.99C159.927 100.629 167.928 89.4768 174.316 79.2696C187.3 57.0928 186.214 30.926 171.952 16.2162V16.2322Z" fill="white" stroke="white" stroke-width="2" stroke-miterlimit="10"/>
<path d="M76.4347 77.0909C76.3494 76.3712 76.0038 75.8125 75.3977 75.4148C74.7917 75.017 74.0483 74.8182 73.1676 74.8182C72.5237 74.8182 71.9602 74.9223 71.4773 75.1307C70.9991 75.339 70.625 75.6255 70.3551 75.9901C70.09 76.3546 69.9574 76.7689 69.9574 77.233C69.9574 77.6212 70.0497 77.955 70.2344 78.2344C70.4238 78.509 70.6653 78.7386 70.9588 78.9233C71.2524 79.1032 71.5601 79.2524 71.8821 79.3707C72.2041 79.4844 72.5 79.5767 72.7699 79.6477L74.2472 80.0455C74.626 80.1449 75.0474 80.2822 75.5114 80.4574C75.9801 80.6326 76.4276 80.8717 76.8537 81.1747C77.2846 81.473 77.6397 81.8565 77.919 82.3253C78.1984 82.794 78.3381 83.3693 78.3381 84.0511C78.3381 84.8371 78.1321 85.5473 77.7202 86.1818C77.313 86.8163 76.7164 87.3205 75.9304 87.6946C75.1492 88.0687 74.1998 88.2557 73.0824 88.2557C72.0407 88.2557 71.1387 88.0876 70.3764 87.7514C69.6189 87.4152 69.0223 86.9465 68.5867 86.3452C68.1558 85.7438 67.9119 85.0455 67.8551 84.25H69.6733C69.7206 84.7992 69.9053 85.2538 70.2273 85.6136C70.554 85.9687 70.9659 86.2339 71.4631 86.4091C71.965 86.5795 72.5047 86.6648 73.0824 86.6648C73.7547 86.6648 74.3584 86.5559 74.8935 86.3381C75.4285 86.1155 75.8523 85.8078 76.1648 85.4148C76.4773 85.017 76.6335 84.553 76.6335 84.0227C76.6335 83.5398 76.4986 83.1468 76.2287 82.8438C75.9588 82.5407 75.6037 82.2945 75.1634 82.1051C74.723 81.9157 74.2472 81.75 73.7358 81.608L71.946 81.0966C70.8097 80.7699 69.91 80.3035 69.2472 79.6974C68.5843 79.0914 68.2528 78.2983 68.2528 77.3182C68.2528 76.5038 68.473 75.7936 68.9134 75.1875C69.3584 74.5767 69.955 74.1032 70.7031 73.767C71.456 73.4261 72.2964 73.2557 73.2244 73.2557C74.1619 73.2557 74.9953 73.4238 75.7244 73.7599C76.4536 74.0914 77.0313 74.5459 77.4574 75.1236C77.8883 75.7012 78.1155 76.357 78.1392 77.0909H76.4347ZM80.4386 75.017V73.4545H91.3477V75.017H86.7738V88H85.0124V75.017H80.4386ZM94.7674 88.5966L93.6879 87.858L103.801 72.8864L104.881 73.625L94.7674 88.5966ZM105.733 80.7273C105.733 82.2614 105.456 83.5871 104.902 84.7045C104.348 85.822 103.588 86.6837 102.623 87.2898C101.657 87.8958 100.553 88.1989 99.3129 88.1989C98.0723 88.1989 96.9691 87.8958 96.0032 87.2898C95.0373 86.6837 94.2773 85.822 93.7234 84.7045C93.1694 83.5871 92.8924 82.2614 92.8924 80.7273C92.8924 79.1932 93.1694 77.8674 93.7234 76.75C94.2773 75.6326 95.0373 74.7708 96.0032 74.1648C96.9691 73.5587 98.0723 73.2557 99.3129 73.2557C100.553 73.2557 101.657 73.5587 102.623 74.1648C103.588 74.7708 104.348 75.6326 104.902 76.75C105.456 77.8674 105.733 79.1932 105.733 80.7273ZM104.029 80.7273C104.029 79.4678 103.818 78.4048 103.397 77.5384C102.98 76.6719 102.414 76.0161 101.699 75.571C100.989 75.1259 100.194 74.9034 99.3129 74.9034C98.4322 74.9034 97.6344 75.1259 96.9194 75.571C96.2092 76.0161 95.6434 76.6719 95.222 77.5384C94.8053 78.4048 94.597 79.4678 94.597 80.7273C94.597 81.9867 94.8053 83.0497 95.222 83.9162C95.6434 84.7827 96.2092 85.4384 96.9194 85.8835C97.6344 86.3286 98.4322 86.5511 99.3129 86.5511C100.194 86.5511 100.989 86.3286 101.699 85.8835C102.414 85.4384 102.98 84.7827 103.397 83.9162C103.818 83.0497 104.029 81.9867 104.029 80.7273ZM107.294 75.017V73.4545H118.203V75.017H113.629V88H111.868V75.017H107.294Z" fill="#263238"/>
</g>
<defs>
<clipPath id="clip0_608_62">
<rect width="185" height="162" fill="white"/>
</clipPath>
</defs>
</svg>
